# Blender v2.93.6 OBJ File: 'bank_hoek.blend'
# www.blender.org
mtllib bank_hoek.mtl
o Cube.010
v 3.040287 3.335935 -0.198256
v 3.040287 2.455935 -0.198256
v 3.920287 3.335935 -0.198257
v 3.040287 3.335935 1.917349
v 3.040287 2.455935 1.917349
v 3.920287 3.335935 1.917349
v 3.920287 2.455935 1.917349
v 3.920287 2.455935 -0.198256
v 2.767011 3.335936 -0.193168
v 2.767011 3.335936 0.686832
v 2.767011 2.455935 -0.193167
v 2.767011 2.455935 0.686832
v 5.794646 3.335936 -0.193168
v 5.794646 3.335936 0.686832
v 5.794646 2.455935 -0.193168
v 5.794646 2.455935 0.686832
v 2.767011 4.474582 -0.200454
v 2.767011 2.462143 -0.200454
v 2.767010 4.474582 -0.481162
v 5.794646 4.474582 -0.200455
v 5.794646 2.462143 -0.200455
v 5.794646 4.474582 -0.481162
v 5.794646 2.462143 -0.481162
v 2.767010 2.462143 -0.481162
v 2.762153 4.474582 0.874402
v 2.762153 2.462143 0.874402
v 3.042860 4.474582 0.874402
v 2.762153 4.474582 2.592149
v 2.762153 2.462143 2.592149
v 3.042860 4.474582 2.592149
v 3.042860 2.462143 2.592149
v 3.042860 2.462143 0.874402
v 3.040287 3.335935 0.874435
v 3.040287 2.455935 0.874435
v 3.920287 3.335935 0.874435
v 3.040287 3.335935 2.592182
v 3.040287 2.455935 2.592182
v 3.920287 3.335935 2.592182
v 3.920287 2.455935 2.592182
v 3.920287 2.455935 0.874435
v 2.762153 4.474582 -0.198297
v 2.762153 2.462143 -0.198297
v 3.042860 4.474582 -0.198297
v 2.762153 4.474582 1.917308
v 2.762153 2.462143 1.917308
v 3.042860 4.474582 1.917308
v 3.042860 2.462143 1.917308
v 3.042860 2.462143 -0.198297
vt 0.375000 0.250000
vt 0.625000 0.250000
vt 0.625000 0.500000
vt 0.375000 0.500000
vt 0.625000 0.750000
vt 0.375000 0.750000
vt 0.875000 0.500000
vt 0.875000 0.750000
vt 0.375000 0.000000
vt 0.625000 0.000000
vt 0.625000 1.000000
vt 0.375000 1.000000
vt 0.125000 0.500000
vt 0.125000 0.750000
vt 0.625000 0.500000
vt 0.875000 0.500000
vt 0.875000 0.750000
vt 0.625000 0.750000
vt 0.375000 0.750000
vt 0.625000 1.000000
vt 0.375000 1.000000
vt 0.375000 0.000000
vt 0.625000 0.000000
vt 0.625000 0.250000
vt 0.375000 0.250000
vt 0.125000 0.500000
vt 0.375000 0.500000
vt 0.125000 0.750000
vt 0.375000 0.250000
vt 0.625000 0.250000
vt 0.625000 0.500000
vt 0.375000 0.500000
vt 0.625000 0.750000
vt 0.375000 0.750000
vt 0.875000 0.500000
vt 0.875000 0.750000
vt 0.375000 0.000000
vt 0.625000 0.000000
vt 0.625000 1.000000
vt 0.375000 1.000000
vt 0.125000 0.500000
vt 0.125000 0.750000
vt 0.375000 0.250000
vt 0.625000 0.250000
vt 0.625000 0.500000
vt 0.375000 0.500000
vt 0.625000 0.750000
vt 0.375000 0.750000
vt 0.875000 0.500000
vt 0.875000 0.750000
vt 0.375000 0.000000
vt 0.625000 0.000000
vt 0.625000 1.000000
vt 0.375000 1.000000
vt 0.125000 0.500000
vt 0.125000 0.750000
vt 0.375000 0.250000
vt 0.625000 0.250000
vt 0.625000 0.500000
vt 0.375000 0.500000
vt 0.625000 0.750000
vt 0.375000 0.750000
vt 0.875000 0.500000
vt 0.875000 0.750000
vt 0.375000 0.000000
vt 0.625000 0.000000
vt 0.625000 1.000000
vt 0.375000 1.000000
vt 0.125000 0.500000
vt 0.125000 0.750000
vt 0.375000 0.250000
vt 0.625000 0.250000
vt 0.625000 0.500000
vt 0.375000 0.500000
vt 0.625000 0.750000
vt 0.375000 0.750000
vt 0.875000 0.500000
vt 0.875000 0.750000
vt 0.375000 0.000000
vt 0.625000 0.000000
vt 0.625000 1.000000
vt 0.375000 1.000000
vt 0.125000 0.500000
vt 0.125000 0.750000
vn -1.0000 -0.0000 0.0000
vn -0.0000 -0.0000 -1.0000
vn 0.0000 1.0000 0.0000
vn 0.0000 0.0000 1.0000
vn 1.0000 -0.0000 0.0000
vn 0.0000 -1.0000 0.0000
usemtl Material.012
s off
f 5/1/1 4/2/1 1/3/1 2/4/1
f 2/4/2 1/3/2 3/5/2 8/6/2
f 1/3/3 4/7/3 6/8/3 3/5/3
f 7/9/4 6/10/4 4/2/4 5/1/4
f 8/6/5 3/5/5 6/11/5 7/12/5
f 5/13/6 2/4/6 8/6/6 7/14/6
f 9/15/2 13/16/2 15/17/2 11/18/2
f 12/19/6 11/18/6 15/20/6 16/21/6
f 16/22/5 15/23/5 13/24/5 14/25/5
f 14/26/4 10/27/4 12/19/4 16/28/4
f 10/27/1 9/15/1 11/18/1 12/19/1
f 14/25/3 13/24/3 9/15/3 10/27/3
f 21/29/4 20/30/4 17/31/4 18/32/4
f 18/32/1 17/31/1 19/33/1 24/34/1
f 17/31/3 20/35/3 22/36/3 19/33/3
f 23/37/5 22/38/5 20/30/5 21/29/5
f 24/34/2 19/33/2 22/39/2 23/40/2
f 21/41/6 18/32/6 24/34/6 23/42/6
f 29/43/1 28/44/1 25/45/1 26/46/1
f 26/46/2 25/45/2 27/47/2 32/48/2
f 25/45/3 28/49/3 30/50/3 27/47/3
f 31/51/4 30/52/4 28/44/4 29/43/4
f 32/48/5 27/47/5 30/53/5 31/54/5
f 29/55/6 26/46/6 32/48/6 31/56/6
f 37/57/1 36/58/1 33/59/1 34/60/1
f 34/60/2 33/59/2 35/61/2 40/62/2
f 33/59/3 36/63/3 38/64/3 35/61/3
f 39/65/4 38/66/4 36/58/4 37/57/4
f 40/62/5 35/61/5 38/67/5 39/68/5
f 37/69/6 34/60/6 40/62/6 39/70/6
f 45/71/1 44/72/1 41/73/1 42/74/1
f 42/74/2 41/73/2 43/75/2 48/76/2
f 41/73/3 44/77/3 46/78/3 43/75/3
f 47/79/4 46/80/4 44/72/4 45/71/4
f 48/76/5 43/75/5 46/81/5 47/82/5
f 45/83/6 42/74/6 48/76/6 47/84/6
