# Blender v3.0.0 OBJ File: 'BOEK.blend'
# www.blender.org
mtllib BOEK.mtl
o Cube
v 0.031230 0.441316 -0.031230
v -0.023444 0.434240 -0.369669
v -0.025192 0.014249 -0.370093
v 0.031230 -0.031230 -0.031230
v 0.031230 0.441316 0.031230
v 0.031230 -0.031230 0.031230
v -0.031230 0.441316 -0.031230
v 0.025192 0.014249 -0.370093
v 0.023444 0.434240 -0.369669
v -0.031230 -0.031230 -0.031230
v -0.031230 0.441316 0.031230
v -0.031230 -0.031230 0.031230
v 0.015615 -0.031230 0.040170
v 0.029193 0.441316 -0.040483
v 0.000000 0.441316 0.040170
v 0.000000 -0.031230 0.040170
v -0.015615 0.441316 0.040170
v 0.015615 0.441316 0.040170
v -0.015615 -0.031230 0.040170
v 0.029193 -0.031230 -0.033916
v 0.029193 0.441316 -0.033916
v 0.029193 -0.031230 -0.040483
v -0.031230 0.441316 -0.043168
v -0.031230 -0.031230 -0.043168
v -0.028849 0.441316 -0.039752
v -0.028849 -0.031230 -0.039752
v -0.028849 -0.031230 -0.034646
v -0.028849 0.441316 -0.034646
v 0.031230 0.441316 -0.043168
v 0.031230 -0.031230 -0.043168
v 0.024671 -0.024984 -0.049727
v 0.025297 -0.031230 -0.049102
v -0.025297 -0.031230 -0.049102
v -0.024671 -0.024984 -0.049727
v 0.025297 0.441316 -0.049102
v 0.024671 0.435070 -0.049727
v -0.024671 0.435070 -0.049727
v -0.025297 0.441316 -0.049102
v 0.025297 -0.024854 -0.377131
v -0.025297 -0.024854 -0.377131
v 0.024854 0.441316 -0.371198
v 0.024671 0.435070 -0.370572
v 0.025297 0.441316 -0.370755
v -0.024854 0.441316 -0.371198
v -0.025297 0.441316 -0.370755
v -0.024671 0.435070 -0.370572
v -0.025297 0.434940 -0.377131
v -0.024854 0.435382 -0.377131
v -0.024671 0.434757 -0.370885
v 0.025297 0.434940 -0.377131
v 0.024671 0.434757 -0.370885
v 0.024854 0.435382 -0.377131
v -0.030475 0.441316 -0.376818
v -0.031672 0.441316 -0.377131
v 0.030475 0.441316 -0.376818
v 0.031672 0.441316 -0.377131
v 0.025297 -0.031230 -0.370755
v -0.025297 -0.031230 -0.370755
v 0.030475 0.441003 -0.377131
v -0.030475 0.441003 -0.377131
v -0.031230 0.441316 -0.377131
v 0.030475 -0.030917 -0.377131
v 0.031230 -0.031230 -0.377131
v -0.031672 -0.031230 -0.377131
v -0.030475 -0.030917 -0.377131
v 0.030475 -0.031230 -0.376818
v 0.031672 -0.031230 -0.377131
v -0.030475 -0.031230 -0.376818
v -0.031672 -0.031230 -0.377131
v -0.023444 0.435070 -0.369669
v 0.023444 0.435070 -0.370572
v 0.023444 0.435070 -0.369669
v -0.023444 0.435070 -0.370572
v 0.023444 0.435382 -0.377131
v -0.023444 0.435382 -0.377131
v -0.023444 0.441003 -0.377131
v 0.023444 0.441003 -0.377131
v -0.023444 0.434240 -0.370885
v -0.023444 0.434757 -0.370885
v 0.023444 0.434757 -0.370885
v 0.023444 0.434240 -0.370885
v -0.023444 0.441316 -0.371198
v 0.023444 0.441316 -0.371198
v 0.023444 0.441316 -0.376818
v -0.023444 0.441316 -0.376818
v -0.023444 0.441316 -0.377131
v 0.023444 0.441316 -0.377131
v 0.024671 0.014249 -0.370885
v -0.024671 0.014249 -0.370885
v -0.024671 -0.024984 -0.370093
v 0.024671 -0.024984 -0.370093
v 0.025192 -0.024959 -0.377131
v 0.025192 -0.024824 -0.376086
v -0.025192 -0.024824 -0.376086
v -0.025192 -0.024959 -0.377131
v 0.025192 -0.031230 -0.370860
v 0.025192 -0.030185 -0.370725
v -0.025192 -0.031230 -0.370860
v -0.025192 -0.030185 -0.370725
v 0.025192 0.014249 -0.376086
v -0.025192 0.014249 -0.376086
v -0.025192 -0.025634 -0.377131
v 0.025192 -0.025634 -0.377131
v 0.025192 -0.030185 -0.370093
v -0.025192 -0.030185 -0.370093
v 0.025192 -0.031230 -0.371535
v -0.025192 -0.031230 -0.371535
v 0.025192 -0.031230 -0.377131
v -0.025192 -0.031230 -0.377131
vt 0.750000 0.750000
vt 0.687500 0.750000
vt 0.625000 0.750000
vt 0.625000 0.500000
vt 0.875000 0.500000
vt 0.875000 0.750000
vt 0.812500 0.750000
vt 0.625000 0.812500
vt 0.375000 0.812500
vt 0.375000 0.750000
vt 0.375000 0.000000
vt 0.625000 0.000000
vt 0.625000 0.250000
vt 0.375000 0.250000
vt 0.187500 0.750000
vt 0.125000 0.750000
vt 0.125000 0.500000
vt 0.375000 0.500000
vt 0.312500 0.750000
vt 0.250000 0.750000
vt 0.375000 0.500000
vt 0.625000 0.500000
vt 0.625000 0.500000
vt 0.375000 0.500000
vt 0.648748 0.500000
vt 0.648748 0.500000
vt 0.623229 0.500000
vt 0.375000 0.500000
vt 0.625000 0.500000
vt 0.125000 0.500000
vt 0.875000 0.500000
vt 0.378373 0.476252
vt 0.621627 0.476252
vt 0.625000 0.501771
vt 0.375000 0.500000
vt 0.375000 0.250000
vt 0.625000 0.250000
vt 0.625000 0.250000
vt 0.375000 0.250000
vt 0.351252 0.500000
vt 0.351252 0.500000
vt 0.376771 0.500000
vt 0.375000 0.937500
vt 0.625000 0.937500
vt 0.625000 1.000000
vt 0.375000 1.000000
vt 0.375000 0.875000
vt 0.625000 0.875000
vt 0.125000 0.500000
vt 0.125000 0.500000
vt 0.375000 0.250000
vt 0.625000 0.250000
vt 0.625000 0.250000
vt 0.375000 0.250000
vt 0.875000 0.500000
vt 0.875000 0.500000
vt -0.000002 0.000002
vt 0.875000 0.500000
vt 0.843836 0.500000
vt 0.843836 0.500000
vt 0.848748 0.500000
vt 0.848748 0.500000
vt 0.651252 0.500000
vt 0.651252 0.500000
vt 0.656164 0.500000
vt 0.656164 0.500000
vt 0.621861 0.474481
vt 0.621861 0.468836
vt 0.624834 0.468836
vt 0.624834 0.496977
vt 0.621861 0.275519
vt 0.624834 0.253023
vt 0.624834 0.281164
vt 0.621861 0.281164
vt 0.851252 0.500000
vt 0.851252 0.500000
vt 0.876771 0.500000
vt 0.621257 0.468836
vt 0.621530 0.468836
vt 0.621530 0.473748
vt 0.399061 0.473748
vt 0.399061 0.276252
vt 0.621530 0.276252
vt 0.621530 0.281164
vt 0.621257 0.281164
vt 0.621627 0.273748
vt 0.378373 0.273748
vt 0.375000 0.248229
vt 0.871977 0.500000
vt 0.849481 0.500000
vt 0.843836 0.500000
vt 0.843836 0.500000
vt 0.656164 0.500000
vt 0.650519 0.500000
vt 0.628023 0.500000
vt 0.656164 0.500000
vt -0.000000 -0.000002
vt 0.000000 0.000000
vt 0.000000 0.000000
vt 0.348748 0.500000
vt 0.151252 0.500000
vt 0.151252 0.500000
vt 0.348748 0.500000
vt 0.625000 0.500000
vt 0.148748 0.500000
vt 0.148748 0.500000
vt 0.123229 0.500000
vt 0.378318 0.475833
vt 0.378389 0.475833
vt 0.378389 0.274167
vt 0.378318 0.274167
vt 0.350833 0.500000
vt 0.350833 0.500000
vt 0.149167 0.500000
vt 0.149167 0.500000
vt 0.625000 0.280945
vt 0.625000 0.467297
vt 0.000000 0.000000
vt 0.000000 0.000000
vt 0.000000 0.000000
vt 0.399061 0.475833
vt 0.399061 0.274167
vt 0.377960 0.274167
vt 0.375166 0.253023
vt 0.375165 0.496977
vt 0.377960 0.475833
vt 0.350833 0.500000
vt 0.149167 0.500000
vt 0.371977 0.500000
vt 0.350833 0.500000
vt 0.128023 0.500000
vt 0.149167 0.500000
vt 0.000000 0.000000
vt 0.000000 0.000000
vt 0.381090 0.039786
vt 0.411056 0.039786
vt 0.412724 0.039786
vt 0.412724 0.038118
vt 0.412724 0.008152
vt 0.379421 0.004816
vt 0.379421 0.000000
vt 0.375000 0.000000
vt 0.375000 0.006484
vt 0.377753 0.006484
vt 0.412724 0.711882
vt 0.412724 0.710214
vt 0.411056 0.710214
vt 0.381090 0.710214
vt 0.377753 0.743516
vt 0.375000 0.743516
vt 0.375000 0.750000
vt 0.379421 0.750000
vt 0.379421 0.745184
vt 0.412724 0.741848
vt 0.375000 1.000000
vt 0.379421 1.000000
vt 0.125000 0.743516
vt 0.125000 0.750000
vt 0.375000 0.275755
vt 0.375000 0.476003
vt 0.430453 0.034919
vt 0.431125 0.029733
vt 0.625000 0.029733
vt 0.625000 0.000000
vt 0.404523 0.000000
vt 0.404523 0.003132
vt 0.399338 0.003804
vt 0.399338 0.007155
vt 0.399338 0.034919
vt 0.427102 0.034919
vt 0.399338 0.742845
vt 0.399338 0.746196
vt 0.404523 0.746868
vt 0.404523 0.750000
vt 0.625000 0.750000
vt 0.625000 0.720267
vt 0.431125 0.720267
vt 0.430453 0.715081
vt 0.427102 0.715081
vt 0.399338 0.715081
vt 0.404523 1.000000
vt 0.625000 1.000000
vt 0.430330 0.752585
vt 0.430330 0.997415
vt 0.875000 0.750000
vt 0.875000 0.720267
vt 0.872415 0.746073
vt 0.627585 0.746073
vn 0.0000 1.0000 -0.0000
vn 0.4969 0.0000 0.8678
vn -1.0000 0.0000 0.0000
vn 0.0000 -1.0000 0.0000
vn 1.0000 0.0000 0.0000
vn 0.7968 0.0000 0.6042
vn 0.7968 0.0000 -0.6042
vn -0.0000 0.0000 -1.0000
vn -1.0000 0.0005 0.0007
vn -0.4969 0.0000 0.8678
vn 0.0000 0.0000 1.0000
vn -0.8205 0.0000 0.5717
vn -0.8205 0.0000 -0.5717
vn 1.0000 -0.0005 0.0007
vn -0.7041 0.7042 -0.0912
vn 0.7042 0.7042 -0.0912
vn -0.7042 0.0912 0.7041
vn 0.7042 0.0912 0.7041
vn 0.7042 -0.7041 -0.0912
vn -0.7042 -0.7041 -0.0912
vn -0.7043 -0.0912 0.7041
vn 0.7043 -0.0912 0.7041
vn 0.0000 1.0000 0.0001
vn 0.0000 0.0997 -0.9950
vn 0.0000 0.0997 0.9950
vn -0.9950 0.0997 0.0000
vn 0.9950 0.0997 0.0000
vn -0.9950 -0.0000 -0.0997
vn 0.9950 -0.0000 -0.0997
vn 0.0000 -0.9950 -0.0997
vn 0.0000 -0.0997 -0.9950
vn -0.9950 -0.0997 0.0000
vn 0.9950 -0.0997 0.0000
usemtl Material
s off
f 15/1/1 18/2/1 5/3/1 1/4/1 7/5/1 11/6/1 17/7/1
f 5/3/2 18/8/2 13/9/2 6/10/2
f 12/11/3 11/12/3 7/13/3 10/14/3
f 19/15/4 12/16/4 10/17/4 4/18/4 6/10/4 13/19/4 16/20/4
f 4/18/5 1/4/5 5/3/5 6/10/5
f 30/21/6 29/22/6 14/23/6 22/24/6
f 43/25/1 35/26/1 29/22/1 56/27/1
f 1/4/7 4/18/7 20/28/7 21/29/7
f 4/18/4 10/17/4 24/30/4 30/21/4
f 7/5/1 1/4/1 29/22/1 23/31/1
f 39/32/8 50/33/8 56/34/8 63/35/8
f 24/36/9 23/37/9 61/38/9 64/39/9
f 32/40/4 57/41/4 67/42/4 30/21/4
f 19/43/10 17/44/10 11/45/10 12/46/10
f 16/47/11 15/48/11 17/44/11 19/43/11
f 4/18/1 30/21/1 22/24/1 20/28/1
f 21/29/5 20/28/5 22/24/5 14/23/5
f 24/30/1 10/17/1 27/49/1 26/50/1
f 13/9/11 18/8/11 15/48/11 16/47/11
f 29/22/4 1/4/4 21/29/4 14/23/4
f 27/51/3 28/52/3 25/53/3 26/54/3
f 23/37/12 24/36/12 26/54/12 25/53/12
f 7/5/4 23/31/4 25/55/4 28/56/4
f 10/14/13 7/13/13 28/52/13 27/51/13
f 54/57/4 61/58/4 23/31/4
f 70/59/1 73/60/1 46/61/1 37/62/1 36/63/1 42/64/1 71/65/1 72/66/1
f 52/67/8 74/68/8 77/69/8 59/70/8
f 48/71/8 60/72/8 76/73/8 75/74/8
f 38/75/1 45/76/1 54/77/1 23/31/1
f 81/78/8 80/79/8 51/80/8 88/81/8 89/82/8 49/83/8 79/84/8 78/85/8
f 47/86/8 40/87/8 64/88/8 61/38/8
f 53/89/1 44/90/1 82/91/1 85/92/1
f 83/93/1 41/94/1 55/95/1 84/96/1
f 63/35/1 30/21/1 67/97/1
f 69/98/4 24/30/4 64/99/4
f 31/100/4 34/101/4 90/102/4 91/103/4
f 29/22/14 30/21/14 63/35/14 56/104/14
f 58/105/4 33/106/4 24/30/4 69/107/4
f 35/26/1 38/75/1 23/31/1 29/22/1
f 92/108/15 93/109/15 39/32/15
f 40/87/16 94/110/16 95/111/16
f 41/94/17 42/64/17 43/25/17
f 44/90/18 45/76/18 46/61/18
f 47/86/19 48/71/19 49/83/19
f 50/33/20 51/80/20 52/67/20
f 57/41/21 97/112/21 96/113/21
f 58/105/22 98/114/22 99/115/22
f 60/72/8 61/38/8 86/116/8 76/73/8
f 59/70/8 77/69/8 87/117/8 56/104/8
f 54/57/23 53/89/23 85/92/23 86/118/23
f 84/96/1 55/95/1 56/119/1 87/120/1
f 38/75/24 35/26/24 36/63/24 37/62/24
f 44/90/25 46/61/25 73/60/25 82/91/25
f 71/65/25 42/64/25 41/94/25 83/93/25
f 35/26/26 43/25/26 42/64/26 36/63/26
f 45/76/27 38/75/27 37/62/27 46/61/27
f 54/77/1 45/76/1 44/90/1 53/89/1
f 43/25/1 56/27/1 55/95/1 41/94/1
f 88/81/28 51/80/28 50/33/28 39/32/28 93/109/28 100/121/28
f 101/122/29 94/110/29 40/87/29 47/86/29 49/83/29 89/82/29
f 74/68/30 52/67/30 51/80/30 80/79/30
f 49/83/30 48/71/30 75/74/30 79/84/30
f 102/123/8 65/124/8 64/88/8 40/87/8 95/111/8
f 39/32/8 63/35/8 62/125/8 103/126/8 92/108/8
f 52/67/8 59/70/8 56/34/8 50/33/8
f 60/72/8 48/71/8 47/86/8 61/38/8
f 32/40/31 33/106/31 34/101/31 31/100/31
f 57/41/32 32/40/32 31/100/32 91/103/32 104/127/32 97/112/32
f 90/102/33 34/101/33 33/106/33 58/105/33 99/115/33 105/128/33
f 66/129/4 67/42/4 57/41/4 96/113/4 106/130/4
f 98/114/4 58/105/4 69/107/4 68/131/4 107/132/4
f 33/106/4 32/40/4 30/21/4 24/30/4
f 108/133/4 67/97/4 66/129/4 106/130/4
f 68/131/4 69/98/4 109/134/4 107/132/4
f 75/135/5 76/136/5 86/137/5 85/138/5 82/139/5 73/140/5 70/141/5 2/142/5 78/143/5 79/144/5
f 84/145/3 87/146/3 77/147/3 74/148/3 80/149/3 81/150/3 9/151/3 72/152/3 71/153/3 83/154/3
f 9/151/8 2/155/8 70/156/8 72/152/8
f 78/157/1 2/158/1 9/151/1 81/150/1
f 65/124/8 102/123/8 109/159/8 64/39/8
f 103/126/8 62/125/8 63/35/8 108/160/8
f 95/161/5 94/162/5 101/163/5 3/164/5 105/165/5 99/166/5 98/167/5 107/168/5 109/169/5 102/170/5
f 106/171/3 96/172/3 97/173/3 104/174/3 8/175/3 100/176/3 93/177/3 92/178/3 103/179/3 108/180/3
f 105/181/8 3/182/8 8/175/8 104/174/8 91/183/8 90/184/8
f 8/175/4 3/185/4 101/186/4 89/187/4 88/188/4 100/176/4
