# Blender v2.93.6 OBJ File: 'Boekenkast.blend'
# www.blender.org
mtllib Boekenkast.mtl
o Cube
v 1.600076 9.492033 -2.952380
v 1.600076 -0.219360 -2.952380
v 1.600076 9.492033 2.952380
v 1.600076 -0.219360 2.952380
v -1.501572 9.492033 -2.952380
v -1.501572 -0.219360 -2.952380
v -1.501572 9.492033 2.952380
v -1.501572 -0.219360 2.952380
v -0.232696 2.497406 2.737500
v -0.232696 4.497405 2.737500
v -0.232696 2.497406 -2.737500
v -0.232696 4.497405 -2.737500
v -1.501572 2.497406 2.737500
v -1.501572 4.497405 2.737500
v -1.501572 4.497405 -2.737500
v -1.501572 2.497406 -2.737500
v -1.501572 7.205833 -2.737500
v -1.501572 7.205833 2.737500
v -1.501572 7.205833 2.737500
v -1.501572 7.205833 -2.737500
v -1.501572 7.205833 -2.737500
v -1.501572 7.205833 2.737500
v -1.501572 7.205833 0.388218
v -1.501572 7.205833 0.388218
v -1.501572 7.205833 2.737500
v -1.501572 7.205833 -2.737500
v -0.231654 4.932838 2.737501
v -0.231654 6.932837 2.737501
v -0.231654 4.932838 -2.737501
v -0.231654 6.932837 -2.737501
v -1.501572 4.932838 2.737501
v -1.501572 6.932837 2.737501
v -1.501572 6.932837 2.737500
v -1.501572 4.932838 -2.737501
v -1.501572 6.932837 -2.737501
v -1.501572 6.932837 -2.737500
v -0.222505 0.209087 2.737501
v -0.222505 2.209086 2.737501
v -0.222505 0.209087 -2.737501
v -0.222505 2.209086 -2.737501
v -1.501572 0.209087 2.737501
v -1.501572 2.209086 2.737501
v -1.501572 2.209086 -2.737501
v -1.501572 0.209087 -2.737501
v 0.101356 7.205834 2.737501
v 0.101356 9.205833 2.737501
v 0.101356 7.205834 -2.737501
v 0.101356 9.205833 -2.737501
v 1.600076 9.205833 2.737501
v 1.600076 7.205834 -2.737501
v 1.600076 9.205833 -2.737501
v 1.600076 7.205834 2.737501
v 0.122729 4.932838 2.737502
v 0.122729 6.932838 2.737502
v 0.122729 4.932838 -2.737502
v 0.122729 6.932838 -2.737502
v 1.600076 4.932838 2.737502
v 1.600076 6.932838 2.737502
v 1.600076 6.932838 -2.737502
v 1.600076 4.932838 -2.737502
v 0.076753 2.497405 2.737502
v 0.076753 4.497405 2.737502
v 0.076753 2.497405 -2.737502
v 0.076753 4.497405 -2.737502
v 1.600076 2.497405 2.737502
v 1.600076 4.497405 2.737502
v 1.600076 4.497405 -2.737502
v 1.600076 2.497405 -2.737502
v 0.080075 0.209085 2.737503
v 0.080075 2.209085 2.737503
v 0.080075 0.209085 -2.737503
v 0.080075 2.209085 -2.737503
v 1.600076 0.209085 2.737503
v 1.600076 2.209085 2.737503
v 1.600076 2.209085 -2.737503
v 1.600076 0.209085 -2.737503
v -1.501572 7.205835 -2.737502
v -1.501572 7.205835 2.737502
v -1.501571 7.205835 2.737499
v -1.501571 7.205835 2.737500
v -1.501571 7.205835 -2.737499
v -1.501571 7.205835 -2.737500
v -1.501571 7.205835 -2.737499
v -1.501571 7.205835 2.737499
v -1.501572 7.205835 -2.737502
v -1.501572 7.205835 2.737502
v -1.501572 7.205835 2.737500
v -1.501572 7.205835 2.737500
v -1.501572 7.205835 -2.737500
v -1.501572 7.205835 -2.737500
v -1.501571 7.205835 2.737500
v -1.501571 7.205835 2.737499
v -1.501571 7.205835 2.737499
v -1.501571 7.205835 -2.737499
v -1.501571 7.205835 -2.737500
v -1.501571 7.205835 -2.737499
v -1.501571 7.205835 2.737500
v -1.501571 7.205835 0.388220
v -1.501572 7.205835 -2.737503
v -1.501572 7.205835 2.737503
v -1.501571 7.205835 -2.737500
v -1.501571 7.205835 0.388220
v -1.501572 7.205835 -2.737503
v -1.501572 7.205835 2.737503
v -1.501572 7.205835 2.737500
v -1.501572 7.205835 2.737500
v -1.501572 7.205835 -2.737500
v -1.501572 7.205835 -2.737500
v -0.170678 7.205835 2.737503
v -0.170678 9.205835 2.737503
v -0.170678 7.205835 -2.737503
v -0.170678 9.205835 -2.737503
v -1.501572 9.205835 -2.737502
v -1.501572 9.205835 2.737502
v -1.501572 7.205835 -2.737503
v -1.501571 7.205835 -2.737500
v -1.501572 7.205835 2.737502
v -1.501571 7.205835 -2.737500
v -1.501572 7.205835 -2.737503
v -1.501572 7.205835 2.737503
v -1.501572 9.205835 2.737503
v -1.501572 7.205835 2.737503
v -1.501572 7.205835 -2.737502
v -1.501571 7.205835 2.737500
v -1.501571 7.205835 2.737500
v -1.501571 7.205835 -2.737500
v -1.501572 7.205835 2.737503
v -1.501572 7.205835 -2.737500
v -1.501572 7.205835 -2.737503
v -1.501571 7.205835 2.737500
v -1.501571 7.205835 2.737499
v -1.501572 7.205835 2.737500
v -1.501572 9.205835 -2.737503
v -1.501571 7.205835 -2.737499
v -1.501571 7.205835 -2.737499
v -1.501571 7.205835 -2.737499
v -1.501571 7.205835 2.737499
v -1.501571 7.205835 2.737499
v -1.501572 7.205835 -2.737502
v -1.501572 7.205835 2.737502
vt 0.625000 0.500000
vt 0.875000 0.500000
vt 0.875000 0.750000
vt 0.625000 0.750000
vt 0.375000 0.750000
vt 0.625000 1.000000
vt 0.375000 1.000000
vt 0.625000 0.000000
vt 0.625000 0.250000
vt 0.617632 0.240902
vt 0.617632 0.009098
vt 0.566146 0.009098
vt 0.566146 0.009098
vt 0.566146 0.009098
vt 0.559119 0.009098
vt 0.559119 0.009098
vt 0.507633 0.009098
vt 0.507633 0.240902
vt 0.559119 0.240902
vt 0.559119 0.240902
vt 0.566146 0.240902
vt 0.566146 0.240902
vt 0.566146 0.240902
vt 0.566146 0.240902
vt 0.566146 0.240902
vt 0.617632 0.240902
vt 0.375000 0.250000
vt 0.444938 0.240902
vt 0.496423 0.240902
vt 0.496423 0.009098
vt 0.444938 0.009098
vt 0.375000 0.000000
vt 0.617632 0.009098
vt 0.566146 0.009098
vt 0.566146 0.009098
vt 0.437515 0.009098
vt 0.437515 0.240902
vt 0.386029 0.009098
vt 0.386030 0.240902
vt 0.125000 0.500000
vt 0.375000 0.500000
vt 0.125000 0.750000
vt 0.566146 0.740902
vt 0.617632 0.740902
vt 0.617632 0.509098
vt 0.566146 0.509098
vt 0.559119 0.509098
vt 0.507633 0.509098
vt 0.496423 0.509098
vt 0.444938 0.509098
vt 0.437515 0.509098
vt 0.386029 0.509098
vt 0.386029 0.740902
vt 0.437515 0.740902
vt 0.444938 0.740902
vt 0.496423 0.740902
vt 0.507633 0.740902
vt 0.559119 0.740902
vt 0.375000 0.500000
vt 0.625000 0.500000
vt 0.625000 0.397726
vt 0.375000 0.397726
vt 0.375000 0.750000
vt 0.625000 0.750000
vt 0.375000 0.852274
vt 0.625000 0.852274
vt 0.272726 0.500000
vt 0.272726 0.750000
vt 0.727274 0.500000
vt 0.727274 0.750000
vt 0.375000 0.392727
vt 0.375000 0.392727
vt 0.375000 0.392727
vt 0.375000 0.392727
vt 0.375000 0.857273
vt 0.375000 0.857273
vt 0.375000 0.857273
vt 0.375000 0.857273
vt 0.267727 0.750000
vt 0.267727 0.750000
vt 0.267727 0.750000
vt 0.267727 0.642727
vt 0.267727 0.500000
vt 0.267727 0.500000
vt 0.267727 0.500000
vt 0.267727 0.642727
vt 0.267727 0.500000
vt 0.267727 0.750000
vt 0.566146 0.009098
vt 0.566146 0.009098
vt 0.566146 0.009098
vt 0.566146 0.009098
vt 0.566146 0.240902
vt 0.566146 0.240902
vt 0.566146 0.240902
vt 0.566146 0.240902
vt 0.375000 0.392727
vt 0.375000 0.392727
vt 0.375000 0.392727
vt 0.375000 0.392727
vt 0.375000 0.857273
vt 0.375000 0.857273
vt 0.375000 0.857273
vt 0.375000 0.857273
vt 0.566146 0.108563
vt 0.566146 0.009098
vt 0.566146 0.009098
vt 0.566146 0.240902
vt 0.566146 0.240902
vt 0.375000 0.500000
vt 0.625000 0.500000
vt 0.625000 0.397642
vt 0.375000 0.397642
vt 0.375000 0.750000
vt 0.625000 0.750000
vt 0.375000 0.852358
vt 0.625000 0.852358
vt 0.272642 0.500000
vt 0.272642 0.750000
vt 0.727358 0.750000
vt 0.727358 0.750000
vt 0.727358 0.500000
vt 0.727358 0.500000
vt 0.375000 0.500000
vt 0.625000 0.500000
vt 0.625000 0.396904
vt 0.375000 0.396904
vt 0.375000 0.750000
vt 0.625000 0.750000
vt 0.375000 0.853096
vt 0.625000 0.853096
vt 0.271904 0.750000
vt 0.271904 0.500000
vt 0.728096 0.500000
vt 0.728096 0.750000
vt 0.375000 0.000000
vt 0.375000 0.250000
vt 0.625000 0.250000
vt 0.625000 0.000000
vt 0.625000 0.370800
vt 0.375000 0.370800
vt 0.375000 0.879200
vt 0.375000 1.000000
vt 0.625000 1.000000
vt 0.625000 0.879200
vt 0.125000 0.500000
vt 0.125000 0.750000
vt 0.245800 0.750000
vt 0.245800 0.500000
vt 0.875000 0.750000
vt 0.875000 0.500000
vt 0.754200 0.500000
vt 0.754200 0.750000
vt 0.375000 0.000000
vt 0.375000 0.250000
vt 0.625000 0.250000
vt 0.625000 0.000000
vt 0.625000 0.369078
vt 0.375000 0.369078
vt 0.375000 0.880922
vt 0.375000 1.000000
vt 0.625000 1.000000
vt 0.625000 0.880922
vt 0.125000 0.500000
vt 0.125000 0.750000
vt 0.244078 0.750000
vt 0.244078 0.500000
vt 0.875000 0.750000
vt 0.875000 0.500000
vt 0.755922 0.500000
vt 0.755922 0.750000
vt 0.375000 0.000000
vt 0.375000 0.250000
vt 0.625000 0.250000
vt 0.625000 0.000000
vt 0.625000 0.372783
vt 0.375000 0.372783
vt 0.375000 0.877217
vt 0.375000 1.000000
vt 0.625000 1.000000
vt 0.625000 0.877217
vt 0.125000 0.500000
vt 0.125000 0.750000
vt 0.247783 0.750000
vt 0.247783 0.500000
vt 0.875000 0.750000
vt 0.875000 0.500000
vt 0.752217 0.500000
vt 0.752217 0.750000
vt 0.375000 0.000000
vt 0.375000 0.250000
vt 0.625000 0.250000
vt 0.625000 0.000000
vt 0.625000 0.372516
vt 0.375000 0.372516
vt 0.375000 0.877484
vt 0.375000 1.000000
vt 0.625000 1.000000
vt 0.625000 0.877484
vt 0.125000 0.500000
vt 0.125000 0.750000
vt 0.247516 0.750000
vt 0.247516 0.500000
vt 0.875000 0.750000
vt 0.875000 0.500000
vt 0.752484 0.500000
vt 0.752484 0.750000
vt 0.375000 0.392727
vt 0.375000 0.392727
vt 0.375000 0.392727
vt 0.375000 0.392727
vt 0.375000 0.857273
vt 0.375000 0.857273
vt 0.375000 0.857273
vt 0.375000 0.857273
vt 0.267727 0.750000
vt 0.267727 0.750000
vt 0.267727 0.750000
vt 0.267727 0.750000
vt 0.267727 0.750000
vt 0.267727 0.500000
vt 0.267727 0.500000
vt 0.267727 0.500000
vt 0.267727 0.500000
vt 0.267727 0.500000
vt 0.267727 0.500000
vt 0.267727 0.750000
vt 0.267727 0.750000
vt 0.267727 0.750000
vt 0.267727 0.750000
vt 0.267727 0.750000
vt 0.267727 0.750000
vt 0.267727 0.642727
vt 0.267727 0.500000
vt 0.267727 0.500000
vt 0.267727 0.500000
vt 0.267727 0.500000
vt 0.267727 0.500000
vt 0.267727 0.500000
vt 0.267727 0.500000
vt 0.267727 0.642727
vt 0.267727 0.500000
vt 0.267727 0.500000
vt 0.267727 0.750000
vt 0.267727 0.750000
vt 0.267727 0.750000
vt 0.267727 0.750000
vt 0.566146 0.009098
vt 0.566146 0.009098
vt 0.566146 0.009098
vt 0.566146 0.009098
vt 0.566146 0.240902
vt 0.566146 0.240902
vt 0.566146 0.240902
vt 0.566146 0.240902
vt 0.375000 0.392727
vt 0.375000 0.392727
vt 0.375000 0.392727
vt 0.375000 0.857273
vt 0.375000 0.857273
vt 0.375000 0.857273
vt 0.566146 0.009098
vt 0.566146 0.009098
vt 0.566146 0.009098
vt 0.566146 0.009098
vt 0.566146 0.240902
vt 0.566146 0.240902
vt 0.566146 0.240902
vt 0.566146 0.240902
vt 0.566146 0.009098
vt 0.566146 0.009098
vt 0.566146 0.009098
vt 0.566146 0.009098
vt 0.566146 0.240902
vt 0.566146 0.240902
vt 0.566146 0.240902
vt 0.566146 0.240902
vt 0.375000 0.392727
vt 0.375000 0.392727
vt 0.375000 0.392727
vt 0.375000 0.392727
vt 0.375000 0.857273
vt 0.375000 0.857273
vt 0.375000 0.857273
vt 0.375000 0.857273
vt 0.566146 0.009098
vt 0.566146 0.009098
vt 0.566146 0.009098
vt 0.566146 0.240902
vt 0.566146 0.240902
vt 0.566146 0.240902
vt 0.375000 0.392727
vt 0.375000 0.392727
vt 0.375000 0.392727
vt 0.375000 0.392727
vt 0.375000 0.857273
vt 0.375000 0.857273
vt 0.375000 0.857273
vt 0.375000 0.857273
vt 0.566146 0.009098
vt 0.566146 0.009098
vt 0.566146 0.240902
vt 0.566146 0.240902
vt 0.625000 0.392727
vt 0.625000 0.392727
vt 0.375000 0.392727
vt 0.375000 0.392727
vt 0.625000 0.857273
vt 0.625000 0.857273
vt 0.625000 0.857273
vt 0.625000 0.857273
vt 0.566146 0.240902
vt 0.566146 0.108563
vt 0.566146 0.009098
vt 0.566146 0.009098
vt 0.566146 0.240902
vt 0.375000 0.392727
vt 0.375000 0.500000
vt 0.625000 0.500000
vt 0.625000 0.392727
vt 0.375000 0.750000
vt 0.625000 0.750000
vt 0.375000 0.857273
vt 0.625000 0.857273
vt 0.267727 0.500000
vt 0.267727 0.500000
vt 0.267727 0.500000
vt 0.267727 0.500000
vt 0.267727 0.500000
vt 0.267727 0.500000
vt 0.267727 0.500000
vt 0.267727 0.500000
vt 0.267727 0.500000
vt 0.267727 0.500000
vt 0.267727 0.500000
vt 0.267727 0.750000
vt 0.267727 0.750000
vt 0.267727 0.750000
vt 0.267727 0.750000
vt 0.267727 0.750000
vt 0.267727 0.750000
vt 0.267727 0.750000
vt 0.267727 0.750000
vt 0.267727 0.750000
vt 0.267727 0.750000
vt 0.267727 0.750000
vt 0.267727 0.750000
vt 0.267727 0.500000
vt 0.732273 0.750000
vt 0.732273 0.750000
vt 0.732273 0.500000
vt 0.732273 0.500000
vn 0.0000 1.0000 0.0000
vn 0.0000 0.0000 1.0000
vn -1.0000 -0.0000 0.0000
vn 0.0000 -1.0000 0.0000
vn 1.0000 0.0000 0.0000
vn 0.0000 0.0000 -1.0000
usemtl Material
s off
f 1/1/1 5/2/1 7/3/1 3/4/1
f 4/5/2 3/4/2 7/6/2 8/7/2
f 7/8/3 5/9/3 113/10/3 114/11/3
f 104/12/3 105/13/3 25/14/3 33/15/3 32/16/3 31/17/3 34/18/3 35/19/3 36/20/3 26/21/3 107/22/3 103/23/3 119/24/3 129/25/3 133/26/3 113/10/3 5/9/3 6/27/3 16/28/3 15/29/3 14/30/3 13/31/3 8/32/3 7/8/3 114/11/3 121/33/3 127/34/3 122/35/3
f 25/14/3 26/21/3 36/20/3 33/15/3
f 42/36/3 13/31/3 16/28/3 43/37/3
f 43/37/3 16/28/3 6/27/3 8/32/3 13/31/3 42/36/3 41/38/3 44/39/3
f 6/40/4 2/41/4 4/5/4 8/42/4
f 52/43/5 49/44/5 3/4/5 4/5/5 2/41/5 1/1/5 51/45/5 50/46/5 59/47/5 60/48/5 67/49/5 68/50/5 75/51/5 76/52/5 73/53/5 74/54/5 65/55/5 66/56/5 57/57/5 58/58/5
f 75/51/5 68/50/5 65/55/5 74/54/5
f 67/49/5 60/48/5 57/57/5 66/56/5
f 59/47/5 50/46/5 52/43/5 58/58/5
f 51/45/5 1/1/5 3/4/5 49/44/5
f 6/27/6 5/9/6 1/1/6 2/41/6
f 11/59/2 12/60/2 15/61/2 16/62/2
f 11/59/3 9/63/3 10/64/3 12/60/3
f 10/64/6 9/63/6 13/65/6 14/66/6
f 9/63/1 11/59/1 16/67/1 13/68/1
f 15/69/4 12/60/4 10/64/4 14/70/4
f 107/71/2 26/72/2 21/73/2 108/74/2
f 22/75/6 25/76/6 105/77/6 106/78/6
f 25/79/1 22/80/1 19/81/1 23/82/1 20/83/1 21/84/1 26/85/1
f 20/83/1 23/82/1 24/86/1 17/87/1
f 23/82/1 19/81/1 18/88/1 24/86/1
f 19/89/3 22/90/3 106/91/3 87/92/3
f 108/93/3 21/94/3 20/95/3 89/96/3
f 89/97/2 20/98/2 17/99/2 90/100/2
f 88/101/6 18/102/6 19/103/6 87/104/6
f 24/105/3 18/106/3 88/107/3 90/108/3 17/109/3
f 29/110/2 30/111/2 35/112/2 34/113/2
f 29/110/3 27/114/3 28/115/3 30/111/3
f 28/115/6 27/114/6 31/116/6 32/117/6
f 27/114/1 29/110/1 34/118/1 31/119/1
f 30/111/4 28/115/4 32/120/4 33/121/4 36/122/4 35/123/4
f 39/124/2 40/125/2 43/126/2 44/127/2
f 39/124/3 37/128/3 38/129/3 40/125/3
f 38/129/6 37/128/6 41/130/6 42/131/6
f 41/132/1 37/128/1 39/124/1 44/133/1
f 43/134/4 40/125/4 38/129/4 42/135/4
f 45/136/5 47/137/5 48/138/5 46/139/5
f 51/140/2 48/138/2 47/137/2 50/141/2
f 52/142/6 45/143/6 46/144/6 49/145/6
f 47/146/1 45/147/1 52/148/1 50/149/1
f 46/150/4 48/151/4 51/152/4 49/153/4
f 53/154/5 55/155/5 56/156/5 54/157/5
f 59/158/2 56/156/2 55/155/2 60/159/2
f 57/160/6 53/161/6 54/162/6 58/163/6
f 55/164/1 53/165/1 57/166/1 60/167/1
f 54/168/4 56/169/4 59/170/4 58/171/4
f 61/172/5 63/173/5 64/174/5 62/175/5
f 67/176/2 64/174/2 63/173/2 68/177/2
f 65/178/6 61/179/6 62/180/6 66/181/6
f 63/182/1 61/183/1 65/184/1 68/185/1
f 62/186/4 64/187/4 67/188/4 66/189/4
f 69/190/5 71/191/5 72/192/5 70/193/5
f 75/194/2 72/192/2 71/191/2 76/195/2
f 73/196/6 69/197/6 70/198/6 74/199/6
f 71/200/1 69/201/1 73/202/1 76/203/1
f 70/204/4 72/205/4 75/206/4 74/207/4
f 119/208/2 103/209/2 99/210/2 115/211/2
f 100/212/2 104/213/2 122/214/2 120/215/2
f 104/216/1 100/217/1 86/218/1 106/219/1 105/220/1
f 107/221/1 108/222/1 85/223/1 99/224/1 103/225/1
f 90/226/1 88/227/1 97/228/1 91/229/1 93/230/1 92/231/1 79/232/1 98/233/1 81/234/1 96/235/1 94/236/1 95/237/1 101/238/1
f 108/222/1 89/239/1 90/226/1 77/240/1 85/223/1
f 98/233/1 102/241/1 83/242/1 81/234/1
f 95/237/1 94/236/1 96/235/1 82/243/1
f 106/219/1 86/218/1 78/244/1 88/227/1 87/245/1
f 98/233/1 79/232/1 84/246/1 102/241/1
f 93/230/1 91/229/1 80/247/1 92/231/1
f 86/248/2 100/249/2 120/250/2 117/251/2
f 99/252/2 85/253/2 123/254/2 115/255/2
f 128/256/2 90/100/2 101/257/2 126/258/2
f 97/259/2 88/101/2 132/260/2 130/261/2
f 91/262/2 97/263/2 130/264/2 124/265/2
f 101/266/2 95/267/2 116/268/2 126/269/2
f 79/270/2 92/271/2 131/272/2 137/273/2
f 96/274/2 81/275/2 135/276/2 134/277/2
f 123/278/2 85/279/2 77/280/2 139/281/2
f 78/282/2 86/283/2 117/284/2 140/285/2
f 88/107/2 78/286/2 140/287/2 132/288/2
f 77/289/2 90/108/2 128/290/2 139/291/2
f 116/292/2 95/293/2 82/294/2 118/295/2
f 80/296/2 91/297/2 124/298/2 125/299/2
f 92/271/2 80/300/2 125/301/2 131/272/2
f 82/302/2 96/274/2 134/277/2 118/303/2
f 135/304/2 81/305/2 83/306/2 136/307/2
f 84/308/2 79/309/2 137/310/2 138/311/2
f 83/312/2 102/313/2 84/314/2 138/315/2 136/316/2
f 129/317/2 111/318/2 112/319/2 133/320/2
f 111/318/3 109/321/3 110/322/3 112/319/3
f 110/322/6 109/321/6 127/323/6 121/324/6
f 119/325/1 115/326/1 123/327/1 139/328/1 128/329/1 126/330/1 116/331/1 118/332/1 134/333/1 135/334/1 136/335/1 138/336/1 137/337/1 131/338/1 125/339/1 124/340/1 130/341/1 132/342/1 140/343/1 117/344/1 120/345/1 122/346/1 127/347/1 109/321/1 111/318/1 129/348/1
f 112/319/4 110/322/4 121/349/4 114/350/4 113/351/4 133/352/4
