# Blender v3.0.1 OBJ File: 'Boekenkast_low_lod.blend'
# www.blender.org
mtllib Boekenkast_low_lod.mtl
o Cube.001
v -0.465300 0.059413 0.857327
v -0.465300 2.871355 0.852075
v -0.465300 0.059413 -0.857327
v -0.465300 2.871355 -0.852075
v 0.465300 0.093323 0.836713
v 0.465300 2.853686 0.841333
v 0.465300 0.093323 -0.836713
v 0.465300 2.853686 -0.841333
v -0.465300 2.132313 0.854902
v -0.465300 2.132313 -0.854902
v 0.465300 2.106944 -0.839480
v 0.465300 2.106944 0.839480
v -0.465300 1.618230 -0.854902
v 0.465300 1.643598 -0.839480
v 0.465300 1.643598 0.839480
v -0.465300 1.618230 0.854902
v -0.465300 0.907903 -0.859476
v 0.465300 0.937882 -0.841252
v 0.465300 0.937882 0.841252
v -0.465300 0.907903 0.859476
v -0.465300 1.524759 0.859476
v -0.465300 2.237959 0.852075
v -0.465300 2.237959 -0.852075
v -0.465300 1.524759 -0.859476
v -0.116109 1.618230 0.854902
v -0.116109 2.132313 0.854902
v -0.116109 2.132313 -0.854902
v -0.116109 1.618230 -0.854902
v 0.465300 2.255629 -0.841333
v 0.465300 2.255629 0.841333
v 0.465300 1.494780 -0.841252
v 0.465300 1.494780 0.841252
v 0.071451 2.106944 -0.839480
v 0.071451 2.106944 0.839480
v 0.071451 1.643598 -0.839480
v 0.071451 1.643598 0.839480
v -0.465300 0.818421 0.857327
v -0.465300 1.567732 0.885600
v -0.465300 1.567732 -0.885600
v -0.465300 0.818421 -0.857327
v -0.465300 0.012904 -0.885600
v -0.465300 0.012904 0.885600
v -0.465300 0.864929 -0.885600
v -0.465300 0.864929 0.885600
v -0.465300 2.182810 0.885600
v -0.465300 2.926504 0.885600
v -0.465300 2.926504 -0.885600
v -0.465300 2.182810 -0.885600
v 0.465300 2.926504 -0.885600
v 0.465300 2.926504 0.885600
v 0.465300 2.182810 -0.885600
v 0.465300 2.182810 0.885600
v 0.465300 1.567732 -0.885600
v 0.465300 1.567732 0.885600
v 0.465300 0.784511 -0.836713
v 0.465300 0.784511 0.836713
v 0.465300 0.864929 -0.885600
v 0.465300 0.012904 -0.885600
v 0.465300 0.012904 0.885600
v 0.465300 0.864929 0.885600
v 0.116863 0.784511 -0.836713
v 0.116863 0.093323 -0.836713
v 0.116863 0.093323 0.836713
v 0.116863 0.784511 0.836713
v 0.122959 1.494780 -0.841252
v 0.122959 1.494780 0.841252
v 0.122959 0.937882 -0.841252
v 0.122959 0.937882 0.841252
v 0.128657 2.853686 -0.841333
v 0.128657 2.853686 0.841333
v 0.128657 2.255629 -0.841333
v 0.128657 2.255629 0.841333
v -0.093065 2.237959 0.852075
v -0.093065 2.871355 0.852075
v -0.093065 2.871355 -0.852075
v -0.093065 2.237959 -0.852075
v -0.161069 0.907903 0.859476
v -0.161069 1.524759 0.859476
v -0.161069 1.524759 -0.859476
v -0.161069 0.907903 -0.859476
v -0.134191 0.059413 -0.857327
v -0.134191 0.059413 0.857327
v -0.134191 0.818421 -0.857327
v -0.134191 0.818421 0.857327
vt 0.565920 0.245268
vt 0.565920 0.004732
vt 0.565920 0.004732
vt 0.565920 0.245268
vt 0.561188 0.250000
vt 0.625000 0.250000
vt 0.625000 0.500000
vt 0.561188 0.500000
vt 0.618752 0.743752
vt 0.567436 0.743752
vt 0.567436 0.743752
vt 0.618752 0.743752
vt 0.561188 0.750000
vt 0.625000 0.750000
vt 0.625000 1.000000
vt 0.561188 1.000000
vt 0.125000 0.500000
vt 0.375000 0.500000
vt 0.375000 0.750000
vt 0.125000 0.750000
vt 0.875000 0.500000
vt 0.875000 0.750000
vt 0.508411 0.750000
vt 0.508411 1.000000
vt 0.514921 0.506510
vt 0.554678 0.506510
vt 0.554678 0.506510
vt 0.514921 0.506510
vt 0.508411 0.250000
vt 0.508411 0.500000
vt 0.556855 0.245667
vt 0.512744 0.245667
vt 0.512744 0.245667
vt 0.556855 0.245667
vt 0.504724 0.003687
vt 0.504724 0.246313
vt 0.504724 0.246313
vt 0.504724 0.003687
vt 0.448108 0.250000
vt 0.448108 0.500000
vt 0.502152 0.743740
vt 0.454367 0.743740
vt 0.454367 0.743740
vt 0.502152 0.743740
vt 0.448108 0.750000
vt 0.448108 1.000000
vt 0.375000 1.000000
vt 0.441207 0.506900
vt 0.441207 0.743100
vt 0.441207 0.743100
vt 0.441207 0.506900
vt 0.375000 0.250000
vt 0.378991 0.003991
vt 0.444117 0.003991
vt 0.444117 0.003991
vt 0.378991 0.003991
vt 0.556855 0.004333
vt 0.512744 0.004333
vt 0.508411 0.000000
vt 0.561188 0.000000
vt 0.512744 0.004333
vt 0.556855 0.004333
vt 0.554678 0.743490
vt 0.514921 0.743490
vt 0.554678 0.743490
vt 0.514921 0.743490
vt 0.451795 0.003687
vt 0.448108 0.000000
vt 0.451795 0.246313
vt 0.378991 0.246009
vt 0.375000 0.000000
vt 0.444117 0.246009
vt 0.620268 0.004732
vt 0.625000 0.000000
vt 0.620268 0.245268
vt 0.618752 0.506248
vt 0.567436 0.506248
vt 0.502152 0.506260
vt 0.454367 0.506260
vt 0.381900 0.506900
vt 0.381900 0.743100
vt 0.381900 0.506900
vt 0.381900 0.743100
vt 0.454367 0.506260
vt 0.502152 0.506260
vt 0.567436 0.506248
vt 0.618752 0.506248
vt 0.620268 0.004732
vt 0.620268 0.245268
vt 0.451795 0.003687
vt 0.451795 0.246313
vt 0.444117 0.246009
vt 0.378991 0.246009
vn 0.0000 1.0000 0.0000
vn 0.0000 0.0000 -1.0000
vn 0.0000 0.0000 1.0000
vn 0.0000 -1.0000 0.0000
vn -1.0000 0.0000 0.0000
vn 1.0000 0.0000 0.0000
usemtl Material.051
s off
f 23/1/1 22/2/1 73/3/1 76/4/1
f 48/5/2 47/6/2 49/7/2 51/8/2
f 6/9/2 30/10/2 72/11/2 70/12/2
f 52/13/3 50/14/3 46/15/3 45/16/3
f 41/17/4 58/18/4 59/19/4 42/20/4
f 49/7/1 47/21/1 46/22/1 50/14/1
f 54/23/3 52/13/3 45/16/3 38/24/3
f 14/25/3 11/26/3 33/27/3 35/28/3
f 39/29/2 48/5/2 51/8/2 53/30/2
f 10/31/3 13/32/3 28/33/3 27/34/3
f 21/35/4 24/36/4 79/37/4 78/38/4
f 43/39/2 39/29/2 53/30/2 57/40/2
f 32/41/2 19/42/2 68/43/2 66/44/2
f 60/45/3 54/23/3 38/24/3 44/46/3
f 59/19/3 60/45/3 44/46/3 42/47/3
f 55/48/4 56/49/4 64/50/4 61/51/4
f 41/52/2 43/39/2 57/40/2 58/18/2
f 1/53/2 37/54/2 84/55/2 82/56/2
f 9/57/5 16/58/5 38/59/5 45/60/5
f 10/31/5 9/57/5 45/60/5 48/5/5
f 13/32/5 10/31/5 48/5/5 39/29/5
f 16/58/5 13/32/5 39/29/5 38/59/5
f 25/61/5 26/62/5 27/34/5 28/33/5
f 16/58/2 9/57/2 26/62/2 25/61/2
f 13/32/1 16/58/1 25/61/1 28/33/1
f 9/57/4 10/31/4 27/34/4 26/62/4
f 12/63/6 11/26/6 51/8/6 52/13/6
f 11/26/6 14/25/6 53/30/6 51/8/6
f 15/64/6 12/63/6 52/13/6 54/23/6
f 14/25/6 15/64/6 54/23/6 53/30/6
f 35/28/6 33/27/6 34/65/6 36/66/6
f 12/63/2 15/64/2 36/66/2 34/65/2
f 11/26/4 12/63/4 34/65/4 33/27/4
f 15/64/1 14/25/1 35/28/1 36/66/1
f 21/35/5 20/67/5 44/68/5 38/59/5
f 24/36/5 21/35/5 38/59/5 39/29/5
f 17/69/5 24/36/5 39/29/5 43/39/5
f 20/67/5 17/69/5 43/39/5 44/68/5
f 1/53/5 3/70/5 41/52/5 42/71/5
f 3/70/5 40/72/5 43/39/5 41/52/5
f 37/54/5 1/53/5 42/71/5 44/68/5
f 40/72/5 37/54/5 44/68/5 43/39/5
f 2/73/5 22/2/5 45/60/5 46/74/5
f 4/75/5 2/73/5 46/74/5 47/6/5
f 23/1/5 4/75/5 47/6/5 48/5/5
f 22/2/5 23/1/5 48/5/5 45/60/5
f 6/9/6 8/76/6 49/7/6 50/14/6
f 8/76/6 29/77/6 51/8/6 49/7/6
f 30/10/6 6/9/6 50/14/6 52/13/6
f 29/77/6 30/10/6 52/13/6 51/8/6
f 32/41/6 31/78/6 53/30/6 54/23/6
f 31/78/6 18/79/6 57/40/6 53/30/6
f 19/42/6 32/41/6 54/23/6 60/45/6
f 18/79/6 19/42/6 60/45/6 57/40/6
f 55/48/6 7/80/6 58/18/6 57/40/6
f 7/80/6 5/81/6 59/19/6 58/18/6
f 5/81/6 56/49/6 60/45/6 59/19/6
f 56/49/6 55/48/6 57/40/6 60/45/6
f 62/82/6 61/51/6 64/50/6 63/83/6
f 5/81/1 7/80/1 62/82/1 63/83/1
f 56/49/2 5/81/2 63/83/2 64/50/2
f 7/80/3 55/48/3 61/51/3 62/82/3
f 67/84/6 65/85/6 66/44/6 68/43/6
f 31/78/4 32/41/4 66/44/4 65/85/4
f 19/42/1 18/79/1 67/84/1 68/43/1
f 18/79/3 31/78/3 65/85/3 67/84/3
f 71/86/6 69/87/6 70/12/6 72/11/6
f 8/76/4 6/9/4 70/12/4 69/87/4
f 30/10/1 29/77/1 71/86/1 72/11/1
f 29/77/3 8/76/3 69/87/3 71/86/3
f 73/3/5 74/88/5 75/89/5 76/4/5
f 2/73/4 4/75/4 75/89/4 74/88/4
f 4/75/3 23/1/3 76/4/3 75/89/3
f 22/2/2 2/73/2 74/88/2 73/3/2
f 77/90/5 78/38/5 79/37/5 80/91/5
f 24/36/3 17/69/3 80/91/3 79/37/3
f 20/67/2 21/35/2 78/38/2 77/90/2
f 17/69/1 20/67/1 77/90/1 80/91/1
f 82/56/5 84/55/5 83/92/5 81/93/5
f 3/70/1 1/53/1 82/56/1 81/93/1
f 37/54/4 40/72/4 83/92/4 84/55/4
f 40/72/3 3/70/3 81/93/3 83/92/3
