# Blender v2.93.6 OBJ File: 'deur.blend'
# www.blender.org
mtllib deur.mtl
o Cube.002
v 0.117524 2.455001 0.571498
v 0.117524 2.455001 0.513489
v 0.117524 2.387837 0.571498
v 0.175076 2.455001 0.571498
v 0.175076 2.455001 0.513489
v 0.175076 2.387837 0.571498
v 0.175076 2.387837 0.513489
v 0.117524 2.387837 0.513489
v 0.138075 0.030120 0.891921
v 0.138075 5.068919 0.891921
v 0.138075 0.030120 -0.866208
v 0.138075 5.068919 -0.866208
v 0.229275 0.030120 0.891921
v 0.229275 5.068919 0.891921
v 0.229275 0.030120 -0.866208
v 0.229275 5.068919 -0.866208
v 0.160678 0.035574 0.812006
v 0.160678 5.049021 0.812006
v 0.160678 0.035574 -0.786293
v 0.160678 5.049021 -0.786293
v 0.217237 0.035574 0.812006
v 0.217237 5.049021 0.812006
v 0.217237 0.035574 -0.786293
v 0.217237 5.049021 -0.786293
v 0.138075 5.049021 -0.786293
v 0.138075 5.049021 0.812006
v 0.138075 0.035574 0.812006
v 0.138075 0.035574 -0.786293
v 0.229275 5.049021 0.812006
v 0.229275 5.049021 -0.786293
v 0.229275 0.035574 0.812006
v 0.229275 0.035574 -0.786293
v 0.160678 1.430321 -0.786293
v 0.160678 0.035574 -0.341645
v 0.160678 3.654274 0.812006
v 0.160678 5.049021 0.367357
v 0.217237 1.788771 0.812006
v 0.217237 0.035574 0.253082
v 0.217237 3.295824 -0.786293
v 0.217237 5.049021 -0.227370
v 0.151071 0.035574 0.812006
v 0.151071 0.035574 -0.786293
v 0.151071 5.049021 0.812006
v 0.237711 0.035574 0.812006
v 0.237711 0.035574 -0.786293
v 0.237711 5.049021 0.812006
v 0.237711 5.049021 -0.786293
v 0.151071 5.049021 -0.786293
v 0.204341 2.455001 0.571498
v 0.204341 2.455001 0.513489
v 0.204341 2.387837 0.571498
v 0.261892 2.455001 0.571498
v 0.261892 2.455001 0.513489
v 0.261892 2.387837 0.571498
v 0.261892 2.387837 0.513489
v 0.204341 2.387837 0.513489
vt 0.125000 0.500000
vt 0.375000 0.500000
vt 0.375000 0.750000
vt 0.125000 0.750000
vt 0.375000 0.000000
vt 0.625000 0.000000
vt 0.625000 0.250000
vt 0.375000 0.250000
vt 0.625000 0.750000
vt 0.625000 1.000000
vt 0.375000 1.000000
vt 0.625000 0.500000
vt 0.875000 0.500000
vt 0.875000 0.750000
vt 0.125000 0.500000
vt 0.375000 0.500000
vt 0.375000 0.750000
vt 0.125000 0.750000
vt 0.375000 0.000000
vt 0.625000 0.000000
vt 0.625000 0.250000
vt 0.375000 0.250000
vt 0.625000 0.750000
vt 0.625000 1.000000
vt 0.375000 1.000000
vt 0.625000 0.500000
vt 0.875000 0.500000
vt 0.875000 0.750000
vt 0.375000 0.000000
vt 0.625000 0.000000
vt 0.625000 0.250000
vt 0.375000 0.250000
vt 0.375271 0.238636
vt 0.624013 0.238636
vt 0.624013 0.011364
vt 0.375271 0.011364
vt 0.625000 0.500000
vt 0.375000 0.500000
vt 0.375271 0.511364
vt 0.625000 0.750000
vt 0.375000 0.750000
vt 0.375271 0.738636
vt 0.624013 0.738636
vt 0.624013 0.511364
vt 0.625000 1.000000
vt 0.375000 1.000000
vt 0.125000 0.500000
vt 0.125000 0.750000
vt 0.875000 0.500000
vt 0.875000 0.750000
vt 0.537575 0.500000
vt 0.625000 0.500000
vt 0.625000 0.250000
vt 0.444550 0.250000
vt 0.375000 0.250000
vt 0.375000 0.500000
vt 0.625000 1.000000
vt 0.625000 0.750000
vt 0.462425 0.750000
vt 0.555450 1.000000
vt 0.375000 0.750000
vt 0.375000 1.000000
vt 0.125000 0.569550
vt 0.125000 0.750000
vt 0.375000 0.662575
vt 0.125000 0.500000
vt 0.875000 0.750000
vt 0.875000 0.680450
vt 0.625000 0.587425
vt 0.875000 0.500000
vt 0.375000 0.282374
vt 0.375000 0.319550
vt 0.444550 0.319550
vt 0.625000 0.319550
vt 0.625000 0.282374
vt 0.537575 0.412575
vt 0.375000 0.412575
vt 0.375000 0.432374
vt 0.625000 0.432374
vt 0.625000 0.412575
vt 0.625000 0.967626
vt 0.625000 0.930450
vt 0.555450 0.930450
vt 0.375000 0.930450
vt 0.375000 0.967626
vt 0.625000 0.837425
vt 0.625000 0.817626
vt 0.375000 0.817626
vt 0.375000 0.837425
vt 0.462425 0.837425
vt 0.194550 0.569550
vt 0.194550 0.500000
vt 0.157374 0.500000
vt 0.157374 0.750000
vt 0.194550 0.750000
vt 0.287575 0.662575
vt 0.287575 0.750000
vt 0.307374 0.750000
vt 0.307374 0.500000
vt 0.287575 0.500000
vt 0.712425 0.500000
vt 0.692626 0.500000
vt 0.692626 0.750000
vt 0.712425 0.750000
vt 0.712425 0.587425
vt 0.805450 0.750000
vt 0.842626 0.750000
vt 0.842626 0.500000
vt 0.805450 0.500000
vt 0.805450 0.680450
vt 0.125000 0.500000
vt 0.375000 0.500000
vt 0.375000 0.750000
vt 0.125000 0.750000
vt 0.375000 0.000000
vt 0.625000 0.000000
vt 0.625000 0.250000
vt 0.375000 0.250000
vt 0.625000 0.750000
vt 0.625000 1.000000
vt 0.375000 1.000000
vt 0.625000 0.500000
vt 0.875000 0.500000
vt 0.875000 0.750000
vn 0.0000 -1.0000 0.0000
vn 1.0000 0.0000 0.0000
vn 0.0000 0.0000 -1.0000
vn -1.0000 0.0000 0.0000
vn 0.0000 1.0000 0.0000
vn 0.0000 0.0000 1.0000
usemtl Material.003
s off
f 2/1/1 5/2/1 4/3/1 1/4/1
f 1/5/2 3/6/2 8/7/2 2/8/2
f 4/3/3 6/9/3 3/10/3 1/11/3
f 5/2/4 7/12/4 6/9/4 4/3/4
f 7/12/5 8/13/5 3/14/5 6/9/5
f 2/8/6 8/7/6 7/12/6 5/2/6
usemtl Material.004
f 50/15/1 53/16/1 52/17/1 49/18/1
f 49/19/2 51/20/2 56/21/2 50/22/2
f 52/17/3 54/23/3 51/24/3 49/25/3
f 53/16/4 55/26/4 54/23/4 52/17/4
f 55/26/5 56/27/5 51/28/5 54/23/5
f 50/22/6 56/21/6 55/26/6 53/16/6
usemtl Material.002
f 9/29/4 10/30/4 12/31/4 11/32/4 28/33/4 25/34/4 26/35/4 27/36/4
f 11/32/4 9/29/4 27/36/4 28/33/4
f 11/32/3 12/31/3 16/37/3 15/38/3
f 32/39/2 15/38/2 16/37/2 14/40/2 13/41/2 31/42/2 29/43/2 30/44/2
f 31/42/2 13/41/2 15/38/2 32/39/2
f 13/41/6 14/40/6 10/45/6 9/46/6
f 11/47/1 15/38/1 13/41/1 9/48/1
f 16/37/5 12/49/5 10/50/5 14/40/5
f 39/51/6 24/52/6 20/53/6 33/54/6
f 33/54/6 19/55/6 23/56/6 39/51/6
f 18/57/3 22/58/3 37/59/3 35/60/3
f 21/61/3 17/62/3 35/60/3 37/59/3
f 34/63/5 17/64/5 21/61/5 38/65/5
f 38/65/5 23/56/5 19/66/5 34/63/5
f 22/58/1 18/67/1 36/68/1 40/69/1
f 20/70/1 24/52/1 40/69/1 36/68/1
f 28/71/6 19/72/6 33/73/6 20/74/6 25/75/6
f 39/76/6 23/77/6 32/78/6 30/79/6 24/80/6
f 26/81/3 18/82/3 35/83/3 17/84/3 27/85/3
f 22/86/3 29/87/3 31/88/3 21/89/3 37/90/3
f 34/91/5 19/92/5 28/93/5 27/94/5 17/95/5
f 38/96/5 21/97/5 31/98/5 32/99/5 23/100/5
f 24/101/1 30/102/1 29/103/1 22/104/1 40/105/1
f 18/106/1 26/107/1 25/108/1 20/109/1 36/110/1
usemtl Material
f 42/111/1 45/112/1 44/113/1 41/114/1
f 41/115/4 43/116/4 48/117/4 42/118/4
f 44/113/6 46/119/6 43/120/6 41/121/6
f 45/112/2 47/122/2 46/119/2 44/113/2
f 47/122/5 48/123/5 43/124/5 46/119/5
f 42/118/3 48/117/3 47/122/3 45/112/3
