# Blender v3.0.0 OBJ File: 'plattegrond.blend'
# www.blender.org
mtllib plattegrond_2.mtl
o Cube.008
v 10.023446 -0.113629 22.092566
v -23.022575 -0.113629 22.092567
v 10.023446 6.401246 22.092566
v 10.023446 -0.113629 21.590252
v -23.022575 -0.113629 21.590254
v 10.023446 6.401246 21.590252
v -23.022575 6.401246 21.590254
v -23.022575 6.401246 22.092567
v -50.400200 6.401246 22.092569
v -50.400200 6.401246 21.590256
v -50.400200 -0.113629 21.590256
v -50.400200 -0.113629 22.092569
v 15.820328 -0.017223 -1.598641
v 15.820328 -0.017223 -10.007532
v 15.820328 6.497652 -1.598641
v 16.309521 -0.017223 -1.598641
v 16.309521 -0.017223 -10.007532
v 16.309521 6.497652 -1.598641
v 16.309521 6.497652 -10.007532
v 15.820328 6.497652 -10.007532
v 15.820328 4.543190 -1.598641
v 16.309521 4.543190 -1.598641
v 16.309521 4.543190 -10.007532
v 15.820328 4.543190 -10.007532
v 15.820328 6.497652 -12.206269
v 16.309521 6.497652 -12.206269
v 16.309521 4.543190 -12.206269
v 15.820328 4.543190 -12.206269
v -50.002594 -0.137364 9.264389
v -50.002594 -0.137364 -5.630250
v -50.002594 6.377511 9.264389
v -49.513405 -0.137364 9.264389
v -49.513405 -0.137364 -5.630251
v -49.513405 6.377511 9.264389
v -49.513405 6.377511 -5.630251
v -50.002594 6.377511 -5.630250
v -50.002594 -0.137364 21.897741
v -50.002594 6.377511 21.897741
v -49.513405 -0.137364 21.897741
v -49.513405 6.377511 21.897741
v 20.328115 -0.037465 -1.477093
v 15.834224 -0.037465 -1.477093
v 20.328115 6.477409 -1.477093
v 20.328115 -0.037465 -1.966285
v 15.834224 -0.037465 -1.966285
v 20.328115 6.477409 -1.966285
v 15.834224 6.477409 -1.966285
v 15.834224 6.477409 -1.477093
v 20.059546 -0.056938 5.609085
v 20.059546 -0.056938 -2.032847
v 20.059546 6.457937 5.609085
v 20.548738 -0.056938 5.609085
v 20.548738 -0.056938 -2.032847
v 20.548738 6.457937 5.609085
v 20.548738 6.457937 -2.032847
v 20.059546 6.457937 -2.032847
v 20.059546 -0.056938 11.198219
v 20.059546 6.457937 11.198219
v 20.548737 -0.056938 11.198219
v 20.548737 6.457937 11.198219
v 20.376131 -0.071491 11.302372
v 9.997104 -0.071491 11.302372
v 20.376131 6.443384 11.302372
v 20.376131 -0.071491 10.813181
v 9.997104 -0.071491 10.813181
v 20.376131 6.443384 10.813181
v 9.997104 6.443384 10.813181
v 9.997104 6.443384 11.302372
v 9.841740 -0.073918 19.270679
v 9.841740 -0.073918 10.955662
v 9.841740 6.440957 19.270679
v 10.330931 -0.073918 19.270679
v 10.330932 -0.073918 10.955662
v 10.330931 6.440957 19.270679
v 10.330932 6.440957 10.955662
v 9.841740 6.440957 10.955662
v 9.841740 -0.073918 22.176449
v 9.841740 6.440957 22.176449
v 10.330932 -0.073918 22.176449
v 10.330932 6.440957 22.176449
v -13.888739 -0.143749 -5.377093
v -27.752674 -0.143749 -5.377092
v -13.888739 6.371127 -5.377093
v -13.888739 -0.143749 -5.866285
v -27.752674 -0.143749 -5.866284
v -13.888739 6.371127 -5.866285
v -27.752674 6.371127 -5.866284
v -27.752674 6.371127 -5.377092
v -50.114990 6.371127 -5.377091
v -50.114990 6.371127 -5.866283
v -50.114990 -0.143749 -5.866283
v -50.114990 -0.143749 -5.377091
v -19.451809 -0.043062 -5.444649
v -19.451809 -0.043062 -16.949768
v -19.451809 6.456938 -5.444649
v -18.962616 -0.043062 -5.444649
v -18.962616 -0.043062 -16.949768
v -18.962616 6.456938 -5.444649
v -18.962616 6.456938 -16.949768
v -19.451809 6.456938 -16.949768
v -0.240639 -0.128330 -15.851706
v -19.706558 -0.128330 -15.851706
v -0.240639 6.491956 -15.851706
v -0.240639 -0.128330 -16.340899
v -19.706558 -0.128330 -16.340897
v -0.240639 6.491956 -16.340899
v -19.706558 6.491956 -16.340897
v -19.706558 6.491956 -15.851706
v -0.776375 -0.497020 -5.371097
v -0.776375 -0.497020 -15.872963
v -0.776375 6.498291 -5.371097
v -0.287180 -0.497020 -5.371097
v -0.287180 -0.497020 -15.872963
v -0.287180 6.498291 -5.371097
v -0.287180 6.498291 -15.872963
v -0.776375 6.498291 -15.872963
v 7.521371 -0.237467 -5.688399
v 7.521372 -0.237467 -19.766094
v 7.521371 6.277409 -5.688399
v 8.010563 -0.237467 -5.688400
v 8.010564 -0.237467 -19.766094
v 8.010563 6.277409 -5.688400
v 8.010564 6.277409 -19.766094
v 7.521372 6.277409 -19.766094
v 7.986104 -0.208422 -5.379959
v -12.085182 -0.208422 -5.379958
v 7.986104 6.364290 -5.379959
v 7.986104 -0.208422 -5.869151
v -12.085182 -0.208422 -5.869150
v 7.986104 6.364290 -5.869151
v -12.085182 6.364290 -5.869150
v -12.085182 6.364290 -5.379958
v 7.986104 4.392476 -5.379959
v 7.986104 4.392476 -5.869151
v -12.085182 4.392476 -5.869150
v -12.085182 4.392476 -5.379958
v -14.650761 6.364290 -5.379958
v -14.650761 6.364290 -5.869150
v -14.650761 4.392476 -5.869150
v -14.650761 4.392476 -5.379958
v 26.410099 -0.219854 -19.136948
v 26.410099 6.280146 -19.136948
v 16.443377 -0.219854 -19.136948
v 15.832060 6.280146 -19.136948
v 26.410099 -0.219854 -19.626139
v 26.410099 6.280146 -19.626139
v 16.443377 -0.219854 -19.626139
v 15.832060 6.280146 -19.626139
v 26.660580 -0.031541 -1.712964
v 16.082541 -0.031541 -1.712964
v 26.660580 6.468459 -1.712964
v 26.660580 -0.031541 -2.202156
v 16.082541 -0.031541 -2.202156
v 26.660580 6.468459 -2.202156
v 16.082541 6.468459 -2.202156
v 16.082541 6.468459 -1.712964
v 26.166847 -0.204189 -1.530312
v 26.166847 -0.204189 -19.339832
v 26.166847 6.295812 -1.530312
v 26.656040 -0.204189 -1.530312
v 26.656040 -0.204189 -19.339832
v 26.656040 6.295812 -1.530312
v 26.656040 6.295812 -19.339832
v 26.166847 6.295812 -19.339832
v 15.820328 -0.131061 -11.874384
v 15.820328 -0.131061 -19.968601
v 15.820328 6.383815 -11.874384
v 16.309519 -0.131061 -11.874384
v 16.309519 -0.131061 -19.968601
v 16.309519 6.383815 -11.874384
v 16.309519 6.383815 -19.968601
v 15.820328 6.383815 -19.968601
v 16.327095 -0.106922 -19.474733
v 13.942302 -0.106922 -19.474733
v 16.327095 6.407953 -19.474733
v 16.327095 -0.106922 -19.963924
v 13.942302 -0.106922 -19.963924
v 16.327095 6.407953 -19.963924
v 13.942302 6.407953 -19.963924
v 13.942302 6.407953 -19.474733
v 10.598228 -0.267693 -19.408060
v 7.560060 -0.267693 -19.408060
v 10.625128 6.247182 -19.408060
v 10.598228 -0.267693 -19.897253
v 7.560060 -0.267693 -19.897253
v 10.625128 6.247182 -19.897253
v 7.560060 6.247182 -19.897253
v 7.560060 6.247182 -19.408060
v 10.617058 4.292719 -19.408060
v 10.617058 4.292719 -19.897253
v 7.560060 4.292719 -19.897253
v 7.560060 4.292719 -19.408060
v 16.111591 4.270031 -19.408060
v 16.119661 6.224494 -19.408060
v 16.119661 6.224494 -19.897253
v 16.111591 4.270031 -19.897253
vt 0.125000 0.500000
vt 0.375000 0.500000
vt 0.375000 0.750000
vt 0.125000 0.750000
vt 0.375000 0.000000
vt 0.625000 0.000000
vt 0.625000 0.250000
vt 0.375000 0.250000
vt 0.625000 0.750000
vt 0.625000 1.000000
vt 0.375000 1.000000
vt 0.625000 0.500000
vt 0.875000 0.500000
vt 0.875000 0.750000
vt 0.625000 0.250000
vt 0.375000 0.250000
vt 0.625000 0.500000
vt 0.375000 0.500000
vt 0.125000 0.500000
vt 0.875000 0.500000
vt 0.125000 0.500000
vt 0.375000 0.500000
vt 0.375000 0.750000
vt 0.125000 0.750000
vt 0.550000 0.000000
vt 0.625000 0.000000
vt 0.625000 0.250000
vt 0.550000 0.250000
vt 0.550000 0.750000
vt 0.625000 0.750000
vt 0.625000 1.000000
vt 0.550000 1.000000
vt 0.550000 0.500000
vt 0.625000 0.500000
vt 0.875000 0.500000
vt 0.875000 0.750000
vt 0.550000 0.500000
vt 0.625000 0.500000
vt 0.375000 0.250000
vt 0.375000 1.000000
vt 0.375000 0.000000
vt 0.550000 0.250000
vt 0.625000 0.250000
vt 0.875000 0.500000
vt 0.125000 0.500000
vt 0.375000 0.500000
vt 0.375000 0.750000
vt 0.125000 0.750000
vt 0.375000 0.000000
vt 0.625000 0.000000
vt 0.625000 0.250000
vt 0.375000 0.250000
vt 0.625000 0.750000
vt 0.625000 0.750000
vt 0.375000 0.750000
vt 0.625000 0.500000
vt 0.875000 0.500000
vt 0.875000 0.750000
vt 0.625000 1.000000
vt 0.375000 1.000000
vt 0.125000 0.750000
vt 0.375000 0.000000
vt 0.625000 0.000000
vt 0.875000 0.750000
vt 0.125000 0.500000
vt 0.375000 0.500000
vt 0.375000 0.750000
vt 0.125000 0.750000
vt 0.375000 0.000000
vt 0.625000 0.000000
vt 0.625000 0.250000
vt 0.375000 0.250000
vt 0.625000 0.750000
vt 0.625000 1.000000
vt 0.375000 1.000000
vt 0.625000 0.500000
vt 0.875000 0.500000
vt 0.875000 0.750000
vt 0.125000 0.500000
vt 0.375000 0.500000
vt 0.375000 0.750000
vt 0.125000 0.750000
vt 0.375000 0.000000
vt 0.625000 0.000000
vt 0.625000 0.250000
vt 0.375000 0.250000
vt 0.625000 0.750000
vt 0.875000 0.750000
vt 0.875000 0.750000
vt 0.625000 0.750000
vt 0.625000 0.500000
vt 0.875000 0.500000
vt 0.375000 0.750000
vt 0.625000 1.000000
vt 0.375000 1.000000
vt 0.125000 0.750000
vt 0.375000 0.000000
vt 0.625000 0.000000
vt 0.125000 0.500000
vt 0.375000 0.500000
vt 0.375000 0.750000
vt 0.125000 0.750000
vt 0.375000 0.000000
vt 0.625000 0.000000
vt 0.625000 0.250000
vt 0.375000 0.250000
vt 0.625000 0.750000
vt 0.625000 1.000000
vt 0.375000 1.000000
vt 0.625000 0.500000
vt 0.875000 0.500000
vt 0.875000 0.750000
vt 0.125000 0.500000
vt 0.375000 0.500000
vt 0.375000 0.750000
vt 0.125000 0.750000
vt 0.375000 0.000000
vt 0.625000 0.000000
vt 0.625000 0.250000
vt 0.375000 0.250000
vt 0.375000 0.000000
vt 0.625000 0.000000
vt 0.625000 0.500000
vt 0.625000 0.750000
vt 0.875000 0.500000
vt 0.875000 0.750000
vt 0.375000 0.750000
vt 0.625000 0.750000
vt 0.625000 1.000000
vt 0.375000 1.000000
vt 0.875000 0.750000
vt 0.125000 0.750000
vt 0.125000 0.500000
vt 0.375000 0.500000
vt 0.375000 0.750000
vt 0.125000 0.750000
vt 0.375000 0.000000
vt 0.625000 0.000000
vt 0.625000 0.250000
vt 0.375000 0.250000
vt 0.625000 0.750000
vt 0.625000 1.000000
vt 0.375000 1.000000
vt 0.625000 0.500000
vt 0.875000 0.500000
vt 0.875000 0.750000
vt 0.625000 0.500000
vt 0.875000 0.500000
vt 0.375000 0.250000
vt 0.625000 0.250000
vt 0.375000 0.500000
vt 0.125000 0.500000
vt 0.125000 0.500000
vt 0.375000 0.500000
vt 0.375000 0.750000
vt 0.125000 0.750000
vt 0.375000 0.000000
vt 0.625000 0.000000
vt 0.625000 0.250000
vt 0.375000 0.250000
vt 0.625000 0.750000
vt 0.625000 1.000000
vt 0.375000 1.000000
vt 0.625000 0.500000
vt 0.875000 0.500000
vt 0.875000 0.750000
vt 0.125000 0.500000
vt 0.375000 0.500000
vt 0.375000 0.750000
vt 0.125000 0.750000
vt 0.375000 0.000000
vt 0.625000 0.000000
vt 0.625000 0.250000
vt 0.375000 0.250000
vt 0.625000 0.750000
vt 0.625000 1.000000
vt 0.375000 1.000000
vt 0.625000 0.500000
vt 0.875000 0.500000
vt 0.875000 0.750000
vt 0.125000 0.500000
vt 0.375000 0.500000
vt 0.375000 0.750000
vt 0.125000 0.750000
vt 0.375000 0.000000
vt 0.625000 0.000000
vt 0.625000 0.250000
vt 0.375000 0.250000
vt 0.625000 0.750000
vt 0.625000 1.000000
vt 0.375000 1.000000
vt 0.625000 0.500000
vt 0.875000 0.500000
vt 0.875000 0.750000
vt 0.125000 0.500000
vt 0.375000 0.500000
vt 0.375000 0.750000
vt 0.125000 0.750000
vt 0.375000 0.000000
vt 0.625000 0.000000
vt 0.625000 0.250000
vt 0.375000 0.250000
vt 0.625000 0.750000
vt 0.625000 1.000000
vt 0.375000 1.000000
vt 0.625000 0.500000
vt 0.875000 0.500000
vt 0.875000 0.750000
vt 0.125000 0.500000
vt 0.375000 0.500000
vt 0.375000 0.750000
vt 0.125000 0.750000
vt 0.550000 0.000000
vt 0.625000 0.000000
vt 0.625000 0.250000
vt 0.550000 0.250000
vt 0.550000 0.750000
vt 0.625000 0.750000
vt 0.625000 1.000000
vt 0.550000 1.000000
vt 0.550000 0.500000
vt 0.625000 0.500000
vt 0.875000 0.500000
vt 0.875000 0.750000
vt 0.625000 0.500000
vt 0.875000 0.500000
vt 0.375000 0.250000
vt 0.375000 1.000000
vt 0.375000 0.000000
vt 0.550000 0.250000
vt 0.625000 0.250000
vt 0.550000 0.500000
vt 0.375000 0.000000
vt 0.625000 0.000000
vt 0.625000 0.250000
vt 0.375000 0.250000
vt 0.625000 0.500000
vt 0.375000 0.500000
vt 0.625000 0.750000
vt 0.375000 0.750000
vt 0.625000 1.000000
vt 0.375000 1.000000
vt 0.125000 0.500000
vt 0.125000 0.750000
vt 0.875000 0.500000
vt 0.875000 0.750000
vt 0.125000 0.500000
vt 0.375000 0.500000
vt 0.375000 0.750000
vt 0.125000 0.750000
vt 0.375000 0.000000
vt 0.625000 0.000000
vt 0.625000 0.250000
vt 0.375000 0.250000
vt 0.625000 0.750000
vt 0.625000 1.000000
vt 0.375000 1.000000
vt 0.625000 0.500000
vt 0.875000 0.500000
vt 0.875000 0.750000
vt 0.125000 0.500000
vt 0.375000 0.500000
vt 0.375000 0.750000
vt 0.125000 0.750000
vt 0.375000 0.000000
vt 0.625000 0.000000
vt 0.625000 0.250000
vt 0.375000 0.250000
vt 0.625000 0.750000
vt 0.625000 1.000000
vt 0.375000 1.000000
vt 0.625000 0.500000
vt 0.875000 0.500000
vt 0.875000 0.750000
vt 0.125000 0.500000
vt 0.375000 0.500000
vt 0.375000 0.750000
vt 0.125000 0.750000
vt 0.375000 0.000000
vt 0.625000 0.000000
vt 0.625000 0.250000
vt 0.375000 0.250000
vt 0.625000 0.750000
vt 0.625000 1.000000
vt 0.375000 1.000000
vt 0.625000 0.500000
vt 0.875000 0.500000
vt 0.875000 0.750000
vt 0.125000 0.500000
vt 0.375000 0.500000
vt 0.375000 0.750000
vt 0.125000 0.750000
vt 0.375000 0.000000
vt 0.625000 0.000000
vt 0.625000 0.250000
vt 0.375000 0.250000
vt 0.625000 0.750000
vt 0.625000 1.000000
vt 0.375000 1.000000
vt 0.625000 0.500000
vt 0.875000 0.500000
vt 0.875000 0.750000
vt 0.125000 0.500000
vt 0.375000 0.500000
vt 0.375000 0.750000
vt 0.125000 0.750000
vt 0.550000 0.000000
vt 0.625000 0.000000
vt 0.625000 0.250000
vt 0.550000 0.250000
vt 0.550000 0.750000
vt 0.625000 0.750000
vt 0.625000 0.750000
vt 0.550000 0.750000
vt 0.550000 0.500000
vt 0.625000 0.500000
vt 0.875000 0.500000
vt 0.875000 0.750000
vt 0.375000 0.250000
vt 0.550000 1.000000
vt 0.375000 1.000000
vt 0.375000 0.000000
vt 0.625000 1.000000
vt 0.550000 1.000000
vt 0.550000 0.000000
vt 0.625000 0.000000
vt 0.875000 0.750000
vn 0.0000 -1.0000 0.0000
vn 0.0000 0.0000 1.0000
vn 1.0000 0.0000 0.0000
vn 0.0000 0.0000 -1.0000
vn 0.0000 1.0000 0.0000
vn -1.0000 0.0000 0.0000
vn -0.9956 -0.0936 0.0000
vn 1.0000 -0.0041 0.0000
vn -0.0041 -1.0000 0.0000
vn 0.0041 1.0000 0.0000
usemtl Material.023
s off
f 2/1/1 5/2/1 4/3/1 1/4/1
f 1/5/2 3/6/2 8/7/2 2/8/2
f 4/3/3 6/9/3 3/10/3 1/11/3
f 5/2/4 7/12/4 6/9/4 4/3/4
f 7/12/5 8/13/5 3/14/5 6/9/5
f 2/8/2 8/7/2 9/15/2 12/16/2
f 12/16/6 9/15/6 10/17/6 11/18/6
f 7/12/4 5/2/4 11/18/4 10/17/4
f 5/2/1 2/1/1 12/19/1 11/18/1
f 8/13/5 7/12/5 10/17/5 9/20/5
f 14/21/1 17/22/1 16/23/1 13/24/1
f 21/25/6 15/26/6 20/27/6 24/28/6
f 22/29/2 18/30/2 15/31/2 21/32/2
f 23/33/3 19/34/3 18/30/3 22/29/3
f 19/34/5 20/35/5 15/36/5 18/30/5
f 19/34/3 23/33/3 27/37/3 26/38/3
f 14/39/4 24/28/4 23/33/4 17/22/4
f 17/22/3 23/33/3 22/29/3 16/23/3
f 16/23/2 22/29/2 21/32/2 13/40/2
f 13/41/6 21/25/6 24/28/6 14/39/6
f 28/42/4 25/43/4 26/38/4 27/37/4
f 24/28/6 20/27/6 25/43/6 28/42/6
f 20/35/5 19/34/5 26/38/5 25/44/5
f 23/33/1 24/28/1 28/42/1 27/37/1
f 30/45/1 33/46/1 32/47/1 29/48/1
f 29/49/6 31/50/6 36/51/6 30/52/6
f 32/47/3 34/53/3 40/54/3 39/55/3
f 33/46/3 35/56/3 34/53/3 32/47/3
f 35/56/5 36/57/5 31/58/5 34/53/5
f 30/52/4 36/51/4 35/56/4 33/46/4
f 39/55/2 40/54/2 38/59/2 37/60/2
f 29/48/1 32/47/1 39/55/1 37/61/1
f 31/50/6 29/49/6 37/62/6 38/63/6
f 34/53/5 31/58/5 38/64/5 40/54/5
f 42/65/1 45/66/1 44/67/1 41/68/1
f 41/69/2 43/70/2 48/71/2 42/72/2
f 44/67/3 46/73/3 43/74/3 41/75/3
f 45/66/4 47/76/4 46/73/4 44/67/4
f 47/76/5 48/77/5 43/78/5 46/73/5
f 42/72/6 48/71/6 47/76/6 45/66/6
f 50/79/1 53/80/1 52/81/1 49/82/1
f 49/83/6 51/84/6 56/85/6 50/86/6
f 54/87/5 51/88/5 58/89/5 60/90/5
f 53/80/3 55/91/3 54/87/3 52/81/3
f 55/91/5 56/92/5 51/88/5 54/87/5
f 50/86/4 56/85/4 55/91/4 53/80/4
f 59/93/2 60/90/2 58/94/2 57/95/2
f 52/81/3 54/87/3 60/90/3 59/93/3
f 49/82/1 52/81/1 59/93/1 57/96/1
f 51/84/6 49/83/6 57/97/6 58/98/6
f 62/99/1 65/100/1 64/101/1 61/102/1
f 61/103/2 63/104/2 68/105/2 62/106/2
f 64/101/3 66/107/3 63/108/3 61/109/3
f 65/100/4 67/110/4 66/107/4 64/101/4
f 67/110/5 68/111/5 63/112/5 66/107/5
f 62/106/6 68/105/6 67/110/6 65/100/6
f 70/113/1 73/114/1 72/115/1 69/116/1
f 69/117/6 71/118/6 76/119/6 70/120/6
f 71/118/6 69/117/6 77/121/6 78/122/6
f 73/114/3 75/123/3 74/124/3 72/115/3
f 75/123/5 76/125/5 71/126/5 74/124/5
f 70/120/4 76/119/4 75/123/4 73/114/4
f 79/127/2 80/128/2 78/129/2 77/130/2
f 74/124/5 71/126/5 78/131/5 80/128/5
f 72/115/3 74/124/3 80/128/3 79/127/3
f 69/116/1 72/115/1 79/127/1 77/132/1
f 82/133/1 85/134/1 84/135/1 81/136/1
f 81/137/2 83/138/2 88/139/2 82/140/2
f 84/135/3 86/141/3 83/142/3 81/143/3
f 85/134/4 87/144/4 86/141/4 84/135/4
f 87/144/5 88/145/5 83/146/5 86/141/5
f 88/145/5 87/144/5 90/147/5 89/148/5
f 92/149/6 89/150/6 90/147/6 91/151/6
f 82/140/2 88/139/2 89/150/2 92/149/2
f 87/144/4 85/134/4 91/151/4 90/147/4
f 85/134/1 82/133/1 92/152/1 91/151/1
f 94/153/1 97/154/1 96/155/1 93/156/1
f 93/157/6 95/158/6 100/159/6 94/160/6
f 96/155/2 98/161/2 95/162/2 93/163/2
f 97/154/3 99/164/3 98/161/3 96/155/3
f 99/164/5 100/165/5 95/166/5 98/161/5
f 94/160/4 100/159/4 99/164/4 97/154/4
f 102/167/1 105/168/1 104/169/1 101/170/1
f 101/171/2 103/172/2 108/173/2 102/174/2
f 104/169/3 106/175/3 103/176/3 101/177/3
f 105/168/4 107/178/4 106/175/4 104/169/4
f 107/178/5 108/179/5 103/180/5 106/175/5
f 102/174/6 108/173/6 107/178/6 105/168/6
f 110/181/1 113/182/1 112/183/1 109/184/1
f 109/185/6 111/186/6 116/187/6 110/188/6
f 112/183/2 114/189/2 111/190/2 109/191/2
f 113/182/3 115/192/3 114/189/3 112/183/3
f 115/192/5 116/193/5 111/194/5 114/189/5
f 110/188/4 116/187/4 115/192/4 113/182/4
f 118/195/1 121/196/1 120/197/1 117/198/1
f 117/199/6 119/200/6 124/201/6 118/202/6
f 120/197/2 122/203/2 119/204/2 117/205/2
f 121/196/3 123/206/3 122/203/3 120/197/3
f 123/206/5 124/207/5 119/208/5 122/203/5
f 118/202/4 124/201/4 123/206/4 121/196/4
f 126/209/1 129/210/1 128/211/1 125/212/1
f 133/213/2 127/214/2 132/215/2 136/216/2
f 134/217/3 130/218/3 127/219/3 133/220/3
f 135/221/4 131/222/4 130/218/4 134/217/4
f 131/222/5 132/223/5 127/224/5 130/218/5
f 132/223/5 131/222/5 138/225/5 137/226/5
f 126/227/6 136/216/6 135/221/6 129/210/6
f 129/210/4 135/221/4 134/217/4 128/211/4
f 128/211/3 134/217/3 133/220/3 125/228/3
f 125/229/2 133/213/2 136/216/2 126/227/2
f 140/230/6 137/231/6 138/225/6 139/232/6
f 135/221/1 136/216/1 140/230/1 139/232/1
f 131/222/4 135/221/4 139/232/4 138/225/4
f 136/216/2 132/215/2 137/231/2 140/230/2
f 141/233/2 142/234/2 144/235/2 143/236/2
f 143/236/7 144/235/7 148/237/7 147/238/7
f 147/238/4 148/237/4 146/239/4 145/240/4
f 145/240/3 146/239/3 142/241/3 141/242/3
f 143/243/1 147/238/1 145/240/1 141/244/1
f 148/237/5 144/245/5 142/246/5 146/239/5
f 150/247/1 153/248/1 152/249/1 149/250/1
f 149/251/2 151/252/2 156/253/2 150/254/2
f 152/249/3 154/255/3 151/256/3 149/257/3
f 153/248/4 155/258/4 154/255/4 152/249/4
f 155/258/5 156/259/5 151/260/5 154/255/5
f 150/254/6 156/253/6 155/258/6 153/248/6
f 158/261/1 161/262/1 160/263/1 157/264/1
f 157/265/6 159/266/6 164/267/6 158/268/6
f 160/263/2 162/269/2 159/270/2 157/271/2
f 161/262/3 163/272/3 162/269/3 160/263/3
f 163/272/5 164/273/5 159/274/5 162/269/5
f 158/268/4 164/267/4 163/272/4 161/262/4
f 166/275/1 169/276/1 168/277/1 165/278/1
f 165/279/6 167/280/6 172/281/6 166/282/6
f 168/277/2 170/283/2 167/284/2 165/285/2
f 169/276/3 171/286/3 170/283/3 168/277/3
f 171/286/5 172/287/5 167/288/5 170/283/5
f 166/282/4 172/281/4 171/286/4 169/276/4
f 174/289/1 177/290/1 176/291/1 173/292/1
f 173/293/2 175/294/2 180/295/2 174/296/2
f 176/291/3 178/297/3 175/298/3 173/299/3
f 177/290/4 179/300/4 178/297/4 176/291/4
f 179/300/5 180/301/5 175/302/5 178/297/5
f 174/296/6 180/295/6 179/300/6 177/290/6
f 182/303/1 185/304/1 184/305/1 181/306/1
f 189/307/2 183/308/2 188/309/2 192/310/2
f 190/311/4 186/312/4 195/313/4 196/314/4
f 191/315/4 187/316/4 186/312/4 190/311/4
f 187/316/5 188/317/5 183/318/5 186/312/5
f 192/310/6 188/309/6 187/316/6 191/315/6
f 182/319/6 192/310/6 191/315/6 185/304/6
f 185/304/4 191/315/4 190/311/4 184/305/4
f 184/305/8 190/311/8 189/320/8 181/321/8
f 181/322/2 189/307/2 192/310/2 182/319/2
f 196/314/8 195/313/8 194/323/8 193/324/8
f 189/320/9 190/311/9 196/314/9 193/324/9
f 183/308/2 189/307/2 193/325/2 194/326/2
f 186/312/10 183/318/10 194/327/10 195/313/10
o Vloer_Plane
v -61.925205 0.000000 30.000000
v 28.074795 0.000000 30.000000
v -61.925205 0.000000 -30.000000
v 28.074795 0.000000 -30.000000
vt 4.999100 3.499399
vt -3.999099 3.499400
vt -3.999100 -2.499399
vt 4.999099 -2.499400
vn 0.0000 1.0000 0.0000
usemtl Material.009
s off
f 197/328/11 198/329/11 200/330/11 199/331/11
o plafond_Plane.001
v 28.074795 6.296068 30.000000
v -61.925205 6.296075 30.000000
v 28.074795 6.296068 -30.000000
v -61.925205 6.296075 -30.000000
vt 22.822922 -10.905232
vt 22.822927 11.905231
vt -21.822922 11.905232
vt -21.822927 -10.905231
vn -0.0000 -1.0000 0.0000
usemtl Material.021
s off
f 201/332/12 202/333/12 204/334/12 203/335/12
