# Blender v3.0.1 OBJ File: 'Schot.blend'
# www.blender.org
mtllib Schot.mtl
o Cube
v 0.579762 1.013344 -0.001612
v 0.565385 0.112234 -0.002498
v 0.579762 1.013344 0.008388
v 0.565385 0.112234 0.007502
v -0.594016 0.996678 -0.002498
v -0.586674 0.131352 -0.002498
v -0.594016 0.996678 0.007502
v -0.586674 0.131352 0.007502
v -0.008364 0.059735 -0.002498
v 0.659386 0.559735 -0.002498
v -0.676114 0.559735 0.007502
v 0.659386 0.559735 0.007502
v -0.676114 0.559735 -0.002498
v -0.008364 1.059735 0.007502
v -0.008364 0.059735 0.007502
v -0.008364 1.059735 -0.002498
v -0.342239 0.059735 -0.002498
v 0.659386 0.309735 -0.002498
v -0.676114 0.809735 0.007502
v 0.659386 0.309735 0.007502
v -0.676114 0.309735 -0.002498
v -0.342239 1.059735 0.007502
v 0.325511 0.059735 0.007502
v 0.325511 1.059735 -0.002498
v 0.325511 0.059735 -0.002498
v 0.659386 0.809735 -0.002498
v -0.676114 0.309735 0.007502
v 0.659386 0.809735 0.007502
v -0.676114 0.809735 -0.002498
v 0.325511 1.059735 0.007502
v -0.342239 0.059735 0.007502
v -0.342239 1.059735 -0.002498
v -0.509176 0.083739 -0.002498
v 0.638072 0.184735 -0.002498
v -0.647270 0.934735 0.007502
v 0.638072 0.184735 0.007502
v -0.648867 0.184735 -0.002498
v -0.492945 1.044719 0.007502
v 0.492448 0.084378 0.007502
v 0.492448 1.039303 -0.002498
v 0.158573 0.059735 -0.002498
v 0.659386 0.684735 -0.002498
v -0.676114 0.434735 0.007502
v 0.659386 0.684735 0.007502
v -0.676114 0.684735 -0.002498
v 0.158573 1.059735 0.007502
v -0.175302 0.059735 0.007502
v -0.175302 1.059735 -0.002498
v -0.175302 0.059735 -0.002498
v 0.659386 0.434735 -0.002498
v -0.676114 0.684735 0.007502
v 0.659386 0.434735 0.007502
v -0.676114 0.434735 -0.002498
v -0.175302 1.059735 0.007502
v 0.158573 0.059735 0.007502
v 0.158573 1.059735 -0.002498
v 0.492448 0.084378 -0.002498
v 0.633983 0.934735 -0.002498
v -0.648867 0.184735 0.007502
v 0.633983 0.934735 0.007502
v -0.647270 0.934735 -0.002498
v 0.492448 1.039303 0.007502
v -0.509176 0.083739 0.007502
v -0.492945 1.044719 -0.002498
vt 0.843750 0.500000
vt 0.843750 0.750000
vt 0.812500 0.750000
vt 0.812500 0.500000
vt 0.625000 0.937500
vt 0.625000 0.968750
vt 0.625000 1.000000
vt 0.593750 1.000000
vt 0.562500 1.000000
vt 0.531250 1.000000
vt 0.500000 1.000000
vt 0.468750 1.000000
vt 0.437500 1.000000
vt 0.406250 1.000000
vt 0.375000 1.000000
vt 0.375000 0.968750
vt 0.375000 0.937500
vt 0.375000 0.906250
vt 0.375000 0.875000
vt 0.375000 0.843750
vt 0.375000 0.812500
vt 0.375000 0.781250
vt 0.375000 0.750000
vt 0.406250 0.750000
vt 0.437500 0.750000
vt 0.468750 0.750000
vt 0.500000 0.750000
vt 0.531250 0.750000
vt 0.562500 0.750000
vt 0.593750 0.750000
vt 0.625000 0.750000
vt 0.625000 0.781250
vt 0.625000 0.812500
vt 0.625000 0.843750
vt 0.625000 0.875000
vt 0.625000 0.906250
vt 0.593750 0.000000
vt 0.593750 0.250000
vt 0.562500 0.250000
vt 0.562500 0.000000
vt 0.781250 0.750000
vt 0.781250 0.500000
vt 0.437500 0.000000
vt 0.437500 0.250000
vt 0.406250 0.250000
vt 0.406250 0.000000
vt 0.468750 0.500000
vt 0.437500 0.500000
vt 0.500000 0.500000
vt 0.625000 0.500000
vt 0.593750 0.500000
vt 0.718750 0.500000
vt 0.718750 0.750000
vt 0.687500 0.750000
vt 0.687500 0.500000
vt 0.500000 0.000000
vt 0.500000 0.250000
vt 0.468750 0.250000
vt 0.468750 0.000000
vt 0.343750 0.500000
vt 0.343750 0.750000
vt 0.312500 0.750000
vt 0.312500 0.500000
vt 0.281250 0.750000
vt 0.281250 0.500000
vt 0.218750 0.500000
vt 0.218750 0.750000
vt 0.187500 0.750000
vt 0.187500 0.500000
vt 0.562500 0.500000
vt 0.406250 0.500000
vt 0.375000 0.500000
vt 0.531250 0.500000
vt 0.156250 0.750000
vt 0.156250 0.500000
vt 0.125000 0.750000
vt 0.125000 0.500000
vt 0.250000 0.750000
vt 0.250000 0.500000
vt 0.375000 0.250000
vt 0.375000 0.000000
vt 0.531250 0.000000
vt 0.531250 0.250000
vt 0.625000 0.437500
vt 0.625000 0.468750
vt 0.375000 0.468750
vt 0.375000 0.437500
vt 0.375000 0.406250
vt 0.375000 0.375000
vt 0.375000 0.343750
vt 0.375000 0.312500
vt 0.375000 0.281250
vt 0.625000 0.250000
vt 0.625000 0.281250
vt 0.625000 0.312500
vt 0.625000 0.343750
vt 0.625000 0.375000
vt 0.625000 0.406250
vt 0.656250 0.500000
vt 0.656250 0.750000
vt 0.750000 0.750000
vt 0.750000 0.500000
vt 0.625000 0.000000
vt 0.875000 0.750000
vt 0.875000 0.500000
vn -0.0991 0.9951 0.0000
vn -0.0000 -0.0000 1.0000
vn -0.9744 0.2248 0.0000
vn 0.0000 1.0000 0.0000
vn -0.9771 -0.2130 0.0000
vn 1.0000 0.0000 0.0000
vn 0.8232 0.5678 0.0000
vn -1.0000 0.0000 0.0000
vn 0.1460 -0.9893 0.0000
vn 0.0000 -1.0000 0.0000
vn 0.9800 0.1991 0.0000
vn 0.9858 -0.1681 0.0000
vn 0.7062 -0.7080 0.0000
vn -0.1423 -0.9898 0.0000
vn -0.5235 -0.8520 0.0000
vn -0.6513 -0.7588 0.0000
vn 0.0000 0.0000 -1.0000
vn 0.2850 0.9585 0.0000
vn 0.1215 0.9926 0.0000
vn 0.3568 -0.9342 0.0000
vn -0.7583 0.6519 0.0000
vn -0.4293 0.9032 0.0000
usemtl Material
s off
f 64/1/1 38/2/1 22/3/1 32/4/1
f 22/5/2 38/6/2 7/7/2 35/8/2 19/9/2 51/10/2 11/11/2 43/12/2 27/13/2 59/14/2 8/15/2 63/16/2 31/17/2 47/18/2 15/19/2 55/20/2 23/21/2 39/22/2 4/23/2 36/24/2 20/25/2 52/26/2 12/27/2 44/28/2 28/29/2 60/30/2 3/31/2 62/32/2 30/33/2 46/34/2 14/35/2 54/36/2
f 35/37/3 61/38/3 29/39/3 19/40/3
f 32/4/4 22/3/4 54/41/4 48/42/4
f 27/43/5 21/44/5 37/45/5 59/46/5
f 50/47/6 52/26/6 20/25/6 18/48/6
f 10/49/6 12/27/6 52/26/6 50/47/6
f 1/50/7 3/31/7 60/30/7 58/51/7
f 56/52/4 46/53/4 30/54/4 24/55/4
f 11/56/8 13/57/8 53/58/8 43/59/8
f 57/60/9 39/61/9 23/62/9 25/63/9
f 25/63/10 23/62/10 55/64/10 41/65/10
f 49/66/10 47/67/10 31/68/10 17/69/10
f 58/51/11 60/30/11 28/29/11 26/70/11
f 18/48/12 20/25/12 36/24/12 34/71/12
f 34/71/13 36/24/13 4/23/13 2/72/13
f 42/73/6 44/28/6 12/27/6 10/49/6
f 26/70/6 28/29/6 44/28/6 42/73/6
f 17/69/14 31/68/14 63/74/14 33/75/14
f 33/75/15 63/74/15 8/76/15 6/77/15
f 41/65/10 55/64/10 15/78/10 9/79/10
f 43/59/8 53/58/8 21/44/8 27/43/8
f 59/46/16 37/45/16 6/80/16 8/81/16
f 51/82/8 45/83/8 13/57/8 11/56/8
f 19/40/8 29/39/8 45/83/8 51/82/8
f 24/84/17 40/85/17 1/50/17 58/51/17 26/70/17 42/73/17 10/49/17 50/47/17 18/48/17 34/71/17 2/72/17 57/86/17 25/87/17 41/88/17 9/89/17 49/90/17 17/91/17 33/92/17 6/80/17 37/45/17 21/44/17 53/58/17 13/57/17 45/83/17 29/39/17 61/38/17 5/93/17 64/94/17 32/95/17 48/96/17 16/97/17 56/98/17
f 40/99/18 62/100/18 3/31/18 1/50/18
f 24/55/19 30/54/19 62/100/19 40/99/19
f 48/42/4 54/41/4 14/101/4 16/102/4
f 16/102/4 14/101/4 46/53/4 56/52/4
f 9/79/10 15/78/10 47/67/10 49/66/10
f 4/23/20 39/61/20 57/60/20 2/72/20
f 7/103/21 5/93/21 61/38/21 35/37/21
f 7/104/22 38/2/22 64/1/22 5/105/22
o Cube.001
v 0.311253 0.002424 0.152502
v 0.311253 0.003226 0.152502
v 0.311253 0.002424 -0.147498
v 0.311253 0.003377 -0.147498
v 0.380083 0.002424 0.152502
v 0.380083 0.003226 0.152502
v 0.380083 0.002424 -0.147498
v 0.380083 0.003377 -0.147498
v 0.311253 0.002424 0.002502
v 0.311253 0.002798 0.152502
v 0.311253 0.102424 0.002502
v 0.311253 0.002241 -0.147498
v 0.345668 0.002424 -0.147498
v 0.345668 0.003377 -0.147498
v 0.380083 0.002241 -0.147498
v 0.380083 0.002424 0.002502
v 0.380083 0.102424 0.002502
v 0.380083 0.002798 0.152502
v 0.345668 0.002424 0.152502
v 0.345668 0.003226 0.152502
v 0.345668 0.102424 0.002502
v 0.345668 0.002424 0.002502
v 0.345668 0.002798 0.152502
v 0.380083 0.052424 0.002502
v 0.345668 0.002241 -0.147498
v 0.311253 0.052424 0.002502
vt 0.500000 0.125000
vt 0.625000 0.125000
vt 0.625000 0.250000
vt 0.500000 0.250000
vt 0.500000 0.375000
vt 0.625000 0.375000
vt 0.625000 0.500000
vt 0.500000 0.500000
vt 0.500000 0.625000
vt 0.625000 0.625000
vt 0.625000 0.750000
vt 0.500000 0.750000
vt 0.500000 0.875000
vt 0.625000 0.875000
vt 0.625000 1.000000
vt 0.500000 1.000000
vt 0.250000 0.625000
vt 0.375000 0.625000
vt 0.375000 0.750000
vt 0.250000 0.750000
vt 0.750000 0.625000
vt 0.875000 0.625000
vt 0.875000 0.750000
vt 0.750000 0.750000
vt 0.750000 0.500000
vt 0.875000 0.500000
vt 0.125000 0.625000
vt 0.125000 0.750000
vt 0.125000 0.500000
vt 0.250000 0.500000
vt 0.375000 0.500000
vt 0.375000 0.875000
vt 0.375000 1.000000
vt 0.375000 0.375000
vt 0.375000 0.250000
vt 0.375000 0.125000
vt 0.375000 0.000000
vt 0.500000 0.000000
vt 0.625000 0.000000
vn -1.0000 0.0000 0.0000
vn 0.0000 0.0000 -1.0000
vn 1.0000 0.0000 0.0000
vn 0.0000 0.0000 1.0000
vn 0.0000 -1.0000 0.0000
vn 0.0000 0.8341 0.5516
vn 0.0000 0.8345 -0.5510
usemtl None
s off
f 90/106/23 75/107/23 68/108/23 76/109/23
f 89/110/24 78/111/24 72/112/24 79/113/24
f 88/114/25 81/115/25 70/116/25 82/117/25
f 87/118/26 84/119/26 66/120/26 74/121/26
f 86/122/27 80/123/27 69/124/27 83/125/27
f 85/126/28 75/127/28 66/128/28 84/129/28
f 81/115/28 85/126/28 84/129/28 70/116/28
f 72/112/29 78/130/29 85/126/29 81/115/29
f 78/130/29 68/131/29 75/127/29 85/126/29
f 73/132/27 86/122/27 83/125/27 65/133/27
f 67/134/27 77/135/27 86/122/27 73/132/27
f 77/135/27 71/136/27 80/123/27 86/122/27
f 83/137/26 87/118/26 74/121/26 65/138/26
f 69/124/26 82/117/26 87/118/26 83/137/26
f 82/117/26 70/116/26 84/119/26 87/118/26
f 80/123/25 88/114/25 82/117/25 69/124/25
f 71/136/25 79/113/25 88/114/25 80/123/25
f 79/113/25 72/112/25 81/115/25 88/114/25
f 77/139/26 89/110/26 79/113/26 71/136/26
f 67/140/26 76/109/26 89/110/26 77/139/26
f 76/109/24 68/108/24 78/111/24 89/110/24
f 73/141/23 90/106/23 76/109/23 67/140/23
f 65/142/23 74/143/23 90/106/23 73/141/23
f 74/143/23 66/144/23 75/107/23 90/106/23
o Cube.002
v -0.391627 0.002424 0.152502
v -0.391627 0.002928 0.152502
v -0.391627 0.002424 -0.147498
v -0.391627 0.002719 -0.147498
v -0.322797 0.002424 0.152502
v -0.322797 0.002928 0.152502
v -0.322797 0.002424 -0.147498
v -0.322797 0.002719 -0.147498
v -0.391627 0.002424 0.002502
v -0.391627 0.003029 0.152502
v -0.391627 0.102424 0.002502
v -0.391627 0.001488 -0.147498
v -0.357212 0.002424 -0.147498
v -0.357212 0.002719 -0.147498
v -0.322797 0.001488 -0.147498
v -0.322797 0.002424 0.002502
v -0.322797 0.102424 0.002502
v -0.322797 0.003029 0.152502
v -0.357212 0.002424 0.152502
v -0.357212 0.002928 0.152502
v -0.357212 0.102424 0.002502
v -0.357212 0.002424 0.002502
v -0.357212 0.003029 0.152502
v -0.322797 0.052424 0.002502
v -0.357212 0.001488 -0.147498
v -0.391627 0.052424 0.002502
vt 0.500000 0.125000
vt 0.625000 0.125000
vt 0.625000 0.250000
vt 0.500000 0.250000
vt 0.500000 0.375000
vt 0.625000 0.375000
vt 0.625000 0.500000
vt 0.500000 0.500000
vt 0.500000 0.625000
vt 0.625000 0.625000
vt 0.625000 0.750000
vt 0.500000 0.750000
vt 0.500000 0.875000
vt 0.625000 0.875000
vt 0.625000 1.000000
vt 0.500000 1.000000
vt 0.250000 0.625000
vt 0.375000 0.625000
vt 0.375000 0.750000
vt 0.250000 0.750000
vt 0.750000 0.625000
vt 0.875000 0.625000
vt 0.875000 0.750000
vt 0.750000 0.750000
vt 0.750000 0.500000
vt 0.875000 0.500000
vt 0.125000 0.625000
vt 0.125000 0.750000
vt 0.125000 0.500000
vt 0.250000 0.500000
vt 0.375000 0.500000
vt 0.375000 0.875000
vt 0.375000 1.000000
vt 0.375000 0.375000
vt 0.375000 0.250000
vt 0.375000 0.125000
vt 0.375000 0.000000
vt 0.500000 0.000000
vt 0.625000 0.000000
vn -1.0000 0.0000 0.0000
vn 0.0000 0.0000 -1.0000
vn 1.0000 0.0000 0.0000
vn 0.0000 -1.0000 0.0000
vn 0.0000 0.8333 0.5528
vn 0.0000 0.8328 -0.5536
vn 0.0000 0.0000 1.0000
usemtl None
s off
f 116/145/30 101/146/30 94/147/30 102/148/30
f 115/149/31 104/150/31 98/151/31 105/152/31
f 114/153/32 107/154/32 96/155/32 108/156/32
f 113/157/31 110/158/31 92/159/31 100/160/31
f 112/161/33 106/162/33 95/163/33 109/164/33
f 111/165/34 101/166/34 92/167/34 110/168/34
f 107/154/34 111/165/34 110/168/34 96/155/34
f 98/151/35 104/169/35 111/165/35 107/154/35
f 104/169/35 94/170/35 101/166/35 111/165/35
f 99/171/33 112/161/33 109/164/33 91/172/33
f 93/173/33 103/174/33 112/161/33 99/171/33
f 103/174/33 97/175/33 106/162/33 112/161/33
f 109/176/36 113/157/36 100/160/36 91/177/36
f 95/163/36 108/156/36 113/157/36 109/176/36
f 108/156/31 96/155/31 110/158/31 113/157/31
f 106/162/32 114/153/32 108/156/32 95/163/32
f 97/175/32 105/152/32 114/153/32 106/162/32
f 105/152/32 98/151/32 107/154/32 114/153/32
f 103/178/36 115/149/36 105/152/36 97/175/36
f 93/179/36 102/148/36 115/149/36 103/178/36
f 102/148/31 94/147/31 104/150/31 115/149/31
f 99/180/30 116/145/30 102/148/30 93/179/30
f 91/181/30 100/182/30 116/145/30 99/180/30
f 100/182/30 92/183/30 101/146/30 116/145/30
