# Blender v2.93.6 OBJ File: 'showtafel.blend'
# www.blender.org
mtllib showtafel.mtl
o Cube.005
v -0.314589 1.457463 0.421036
v -0.314589 1.527463 0.421036
v -0.314589 1.457463 -0.418964
v -0.314589 1.527463 -0.418964
v 0.525411 1.457463 0.421036
v 0.525411 1.527463 0.421036
v 0.525411 1.457463 -0.418964
v 0.525411 1.527463 -0.418964
v 0.560411 0.458936 -0.453964
v 0.560411 0.003936 -0.453964
v 0.560411 0.458936 0.456036
v 0.560411 0.003936 0.456036
v -0.349589 0.458936 -0.453964
v -0.349589 0.003936 -0.453964
v -0.349589 0.458936 0.456036
v -0.349589 0.003936 0.456036
v -1.014589 0.452695 1.121037
v -1.014589 0.522695 1.121037
v -1.014589 0.452695 -1.118964
v -1.014589 0.522695 -1.118964
v 1.225412 0.452695 1.121037
v 1.225412 0.522695 1.121037
v 1.225412 0.452695 -1.118964
v 1.225412 0.522695 -1.118964
v 0.420411 0.978717 -0.313964
v 0.420411 0.523717 -0.313964
v 0.420411 0.978717 0.316036
v 0.420411 0.523717 0.316036
v -0.209589 0.978717 -0.313964
v -0.209589 0.523717 -0.313964
v -0.209589 0.978717 0.316036
v -0.209589 0.523717 0.316036
v -0.629589 0.954761 0.736036
v -0.629589 1.024761 0.736036
v -0.629589 0.954761 -0.733963
v -0.629589 1.024761 -0.733963
v 0.840411 0.954761 0.736036
v 0.840411 1.024761 0.736036
v 0.840411 0.954761 -0.733963
v 0.840411 1.024761 -0.733963
v 0.297911 1.471510 -0.191464
v 0.297911 1.016510 -0.191464
v 0.297911 1.471510 0.193536
v 0.297911 1.016510 0.193536
v -0.087089 1.471510 -0.191464
v -0.087089 1.016510 -0.191464
v -0.087089 1.471510 0.193536
v -0.087089 1.016510 0.193536
vt 0.375000 0.000000
vt 0.625000 0.000000
vt 0.625000 0.250000
vt 0.375000 0.250000
vt 0.625000 0.500000
vt 0.375000 0.500000
vt 0.625000 0.750000
vt 0.375000 0.750000
vt 0.625000 1.000000
vt 0.375000 1.000000
vt 0.125000 0.500000
vt 0.125000 0.750000
vt 0.875000 0.500000
vt 0.875000 0.750000
vt 0.625000 0.500000
vt 0.875000 0.500000
vt 0.875000 0.750000
vt 0.625000 0.750000
vt 0.375000 0.750000
vt 0.625000 1.000000
vt 0.375000 1.000000
vt 0.375000 0.000000
vt 0.625000 0.000000
vt 0.625000 0.250000
vt 0.375000 0.250000
vt 0.125000 0.500000
vt 0.375000 0.500000
vt 0.125000 0.750000
vt 0.375000 0.000000
vt 0.625000 0.000000
vt 0.625000 0.250000
vt 0.375000 0.250000
vt 0.625000 0.500000
vt 0.375000 0.500000
vt 0.625000 0.750000
vt 0.375000 0.750000
vt 0.625000 1.000000
vt 0.375000 1.000000
vt 0.125000 0.500000
vt 0.125000 0.750000
vt 0.875000 0.500000
vt 0.875000 0.750000
vt 0.625000 0.500000
vt 0.875000 0.500000
vt 0.875000 0.750000
vt 0.625000 0.750000
vt 0.375000 0.750000
vt 0.625000 1.000000
vt 0.375000 1.000000
vt 0.375000 0.000000
vt 0.625000 0.000000
vt 0.625000 0.250000
vt 0.375000 0.250000
vt 0.125000 0.500000
vt 0.375000 0.500000
vt 0.125000 0.750000
vt 0.375000 0.000000
vt 0.625000 0.000000
vt 0.625000 0.250000
vt 0.375000 0.250000
vt 0.625000 0.500000
vt 0.375000 0.500000
vt 0.625000 0.750000
vt 0.375000 0.750000
vt 0.625000 1.000000
vt 0.375000 1.000000
vt 0.125000 0.500000
vt 0.125000 0.750000
vt 0.875000 0.500000
vt 0.875000 0.750000
vt 0.625000 0.500000
vt 0.875000 0.500000
vt 0.875000 0.750000
vt 0.625000 0.750000
vt 0.375000 0.750000
vt 0.625000 1.000000
vt 0.375000 1.000000
vt 0.375000 0.000000
vt 0.625000 0.000000
vt 0.625000 0.250000
vt 0.375000 0.250000
vt 0.125000 0.500000
vt 0.375000 0.500000
vt 0.125000 0.750000
vn -1.0000 0.0000 0.0000
vn 0.0000 0.0000 -1.0000
vn 1.0000 0.0000 0.0000
vn 0.0000 0.0000 1.0000
vn 0.0000 -1.0000 0.0000
vn 0.0000 1.0000 0.0000
usemtl Material
s off
f 1/1/1 2/2/1 4/3/1 3/4/1
f 3/4/2 4/3/2 8/5/2 7/6/2
f 7/6/3 8/5/3 6/7/3 5/8/3
f 5/8/4 6/7/4 2/9/4 1/10/4
f 3/11/5 7/6/5 5/8/5 1/12/5
f 8/5/6 4/13/6 2/14/6 6/7/6
f 9/15/6 13/16/6 15/17/6 11/18/6
f 12/19/4 11/18/4 15/20/4 16/21/4
f 16/22/1 15/23/1 13/24/1 14/25/1
f 14/26/5 10/27/5 12/19/5 16/28/5
f 10/27/3 9/15/3 11/18/3 12/19/3
f 14/25/2 13/24/2 9/15/2 10/27/2
f 17/29/1 18/30/1 20/31/1 19/32/1
f 19/32/2 20/31/2 24/33/2 23/34/2
f 23/34/3 24/33/3 22/35/3 21/36/3
f 21/36/4 22/35/4 18/37/4 17/38/4
f 19/39/5 23/34/5 21/36/5 17/40/5
f 24/33/6 20/41/6 18/42/6 22/35/6
usemtl Material.001
f 25/43/6 29/44/6 31/45/6 27/46/6
f 28/47/4 27/46/4 31/48/4 32/49/4
f 32/50/1 31/51/1 29/52/1 30/53/1
f 30/54/5 26/55/5 28/47/5 32/56/5
f 26/55/3 25/43/3 27/46/3 28/47/3
f 30/53/2 29/52/2 25/43/2 26/55/2
f 33/57/1 34/58/1 36/59/1 35/60/1
f 35/60/2 36/59/2 40/61/2 39/62/2
f 39/62/3 40/61/3 38/63/3 37/64/3
f 37/64/4 38/63/4 34/65/4 33/66/4
f 35/67/5 39/62/5 37/64/5 33/68/5
f 40/61/6 36/69/6 34/70/6 38/63/6
usemtl Material.002
f 41/71/6 45/72/6 47/73/6 43/74/6
f 44/75/4 43/74/4 47/76/4 48/77/4
f 48/78/1 47/79/1 45/80/1 46/81/1
f 46/82/5 42/83/5 44/75/5 48/84/5
f 42/83/3 41/71/3 43/74/3 44/75/3
f 46/81/2 45/80/2 41/71/2 42/83/2
