# Blender v2.93.6 OBJ File: 'plattegrond.blend'
# www.blender.org
mtllib plattegrond.mtl
o Cube.008
v 10.023446 -0.113629 22.092566
v -23.022575 -0.113629 22.092567
v 10.023446 6.401246 22.092566
v 10.023446 -0.113629 21.590252
v -23.022575 -0.113629 21.590254
v 10.023446 6.401246 21.590252
v -23.022575 6.401246 21.590254
v -23.022575 6.401246 22.092567
v -37.882988 6.401246 22.092567
v -37.882988 6.401246 21.590254
v -37.882988 -0.113629 21.590254
v -37.882988 -0.113629 22.092567
vt 0.125000 0.500000
vt 0.375000 0.500000
vt 0.375000 0.750000
vt 0.125000 0.750000
vt 0.375000 0.000000
vt 0.625000 0.000000
vt 0.625000 0.250000
vt 0.375000 0.250000
vt 0.625000 0.750000
vt 0.625000 1.000000
vt 0.375000 1.000000
vt 0.625000 0.500000
vt 0.875000 0.500000
vt 0.875000 0.750000
vt 0.625000 0.250000
vt 0.375000 0.250000
vt 0.625000 0.500000
vt 0.375000 0.500000
vt 0.125000 0.500000
vt 0.875000 0.500000
vn 0.0000 -1.0000 0.0000
vn 0.0000 0.0000 1.0000
vn 1.0000 0.0000 0.0000
vn 0.0000 0.0000 -1.0000
vn 0.0000 1.0000 0.0000
vn -1.0000 0.0000 0.0000
usemtl Material.023
s off
f 2/1/1 5/2/1 4/3/1 1/4/1
f 1/5/2 3/6/2 8/7/2 2/8/2
f 4/3/3 6/9/3 3/10/3 1/11/3
f 5/2/4 7/12/4 6/9/4 4/3/4
f 7/12/5 8/13/5 3/14/5 6/9/5
f 2/8/2 8/7/2 9/15/2 12/16/2
f 12/16/6 9/15/6 10/17/6 11/18/6
f 7/12/4 5/2/4 11/18/4 10/17/4
f 5/2/1 2/1/1 12/19/1 11/18/1
f 8/13/5 7/12/5 10/17/5 9/20/5
o Cube.001
v 15.820328 -0.017223 -1.598641
v 15.820328 -0.017223 -10.007532
v 16.309521 -0.017223 -1.598641
v 15.820328 4.543190 -1.598641
v 15.820328 6.497652 -1.598641
v 16.309521 4.543190 -1.598641
v 15.820328 4.543190 -10.007532
v 15.820328 6.497652 -10.007532
v 16.309521 4.543190 -10.007532
v 15.820328 4.543190 -12.206269
v 15.820328 6.497652 -12.206269
v 16.309521 4.543190 -12.206269
v 16.309521 6.497652 -12.206269
v 16.309521 6.497652 -10.007532
v 16.309521 6.497652 -1.598641
v 16.309521 -0.017223 -10.007532
vt 0.375000 0.000000
vt 0.550000 0.000000
vt 0.550000 0.250000
vt 0.375000 0.250000
vt 0.125000 0.500000
vt 0.375000 0.500000
vt 0.375000 0.750000
vt 0.125000 0.750000
vt 0.550000 0.750000
vt 0.550000 1.000000
vt 0.375000 1.000000
vt 0.625000 0.750000
vt 0.625000 1.000000
vt 0.625000 0.000000
vt 0.625000 0.250000
vt 0.550000 0.500000
vt 0.625000 0.250000
vt 0.550000 0.250000
vt 0.550000 0.500000
vt 0.625000 0.500000
vt 0.625000 0.500000
vt 0.875000 0.500000
vt 0.875000 0.500000
vt 0.875000 0.750000
vn -1.0000 0.0000 0.0000
vn 0.0000 -1.0000 0.0000
vn 0.0000 0.0000 1.0000
vn 0.0000 0.0000 -1.0000
vn 1.0000 0.0000 0.0000
vn 0.0000 1.0000 0.0000
usemtl Material.023
s off
f 13/21/7 16/22/7 19/23/7 14/24/7
f 14/25/8 28/26/8 15/27/8 13/28/8
f 15/27/9 18/29/9 16/30/9 13/31/9
f 18/29/9 27/32/9 17/33/9 16/30/9
f 16/22/7 17/34/7 20/35/7 19/23/7
f 14/24/10 19/23/10 21/36/10 28/26/10
f 19/23/7 20/35/7 23/37/7 22/38/7
f 21/36/8 19/23/8 22/38/8 24/39/8
f 22/38/10 23/37/10 25/40/10 24/39/10
f 26/41/11 21/36/11 24/39/11 25/40/11
f 20/42/12 26/41/12 25/40/12 23/43/12
f 26/41/12 20/42/12 17/44/12 27/32/12
f 21/36/11 26/41/11 27/32/11 18/29/11
f 28/26/11 21/36/11 18/29/11 15/27/11
o Cube.002
v -37.909729 -0.137364 9.264389
v -37.909729 -0.137364 -5.630250
v -37.909729 6.377511 9.264389
v -37.420540 -0.137364 9.264389
v -37.909729 -0.137364 21.897741
v -37.909729 6.377511 21.897741
v -37.420540 -0.137364 21.897741
v -37.420540 6.377511 21.897741
v -37.420540 6.377511 9.264389
v -37.420540 6.377511 -5.630251
v -37.909729 6.377511 -5.630250
v -37.420540 -0.137364 -5.630251
vt 0.375000 0.000000
vt 0.625000 0.000000
vt 0.625000 0.250000
vt 0.375000 0.250000
vt 0.125000 0.500000
vt 0.375000 0.500000
vt 0.375000 0.750000
vt 0.125000 0.750000
vt 0.375000 0.000000
vt 0.625000 0.000000
vt 0.375000 0.750000
vt 0.125000 0.750000
vt 0.625000 0.750000
vt 0.625000 1.000000
vt 0.375000 1.000000
vt 0.625000 0.750000
vt 0.875000 0.750000
vt 0.875000 0.750000
vt 0.625000 0.500000
vt 0.875000 0.500000
vn -1.0000 0.0000 0.0000
vn 0.0000 -1.0000 0.0000
vn 0.0000 0.0000 1.0000
vn 1.0000 0.0000 0.0000
vn 0.0000 1.0000 0.0000
vn 0.0000 0.0000 -1.0000
usemtl Material.023
s off
f 29/45/13 31/46/13 39/47/13 30/48/13
f 30/49/14 40/50/14 32/51/14 29/52/14
f 31/46/13 29/45/13 33/53/13 34/54/13
f 29/52/14 32/51/14 35/55/14 33/56/14
f 35/55/15 36/57/15 34/58/15 33/59/15
f 32/51/16 37/60/16 36/57/16 35/55/16
f 37/60/17 31/61/17 34/62/17 36/57/17
f 40/50/16 38/63/16 37/60/16 32/51/16
f 38/63/17 39/64/17 31/61/17 37/60/17
f 30/48/18 39/47/18 38/63/18 40/50/18
o Cube.003
v 20.328115 -0.037465 -1.477093
v 15.834224 -0.037465 -1.477093
v 20.328115 6.477409 -1.477093
v 20.328115 -0.037465 -1.966285
v 15.834224 -0.037465 -1.966285
v 20.328115 6.477409 -1.966285
v 15.834224 6.477409 -1.966285
v 15.834224 6.477409 -1.477093
vt 0.375000 0.000000
vt 0.625000 0.000000
vt 0.625000 0.250000
vt 0.375000 0.250000
vt 0.125000 0.500000
vt 0.375000 0.500000
vt 0.375000 0.750000
vt 0.125000 0.750000
vt 0.625000 0.750000
vt 0.625000 1.000000
vt 0.375000 1.000000
vt 0.625000 0.500000
vt 0.875000 0.500000
vt 0.875000 0.750000
vn 0.0000 0.0000 1.0000
vn 0.0000 -1.0000 0.0000
vn 1.0000 0.0000 0.0000
vn 0.0000 0.0000 -1.0000
vn 0.0000 1.0000 0.0000
vn -1.0000 0.0000 0.0000
usemtl Material.023
s off
f 41/65/19 43/66/19 48/67/19 42/68/19
f 42/69/20 45/70/20 44/71/20 41/72/20
f 44/71/21 46/73/21 43/74/21 41/75/21
f 45/70/22 47/76/22 46/73/22 44/71/22
f 47/76/23 48/77/23 43/78/23 46/73/23
f 42/68/24 48/67/24 47/76/24 45/70/24
o Cube.004
v 20.059546 -0.056938 5.609085
v 20.059546 -0.056938 -2.032847
v 20.059546 6.457937 5.609085
v 20.548738 -0.056938 5.609085
v 20.059546 -0.056938 11.198219
v 20.059546 6.457937 11.198219
v 20.548737 -0.056938 11.198219
v 20.548737 6.457937 11.198219
v 20.548738 6.457937 5.609085
v 20.548738 6.457937 -2.032847
v 20.059546 6.457937 -2.032847
v 20.548738 -0.056938 -2.032847
vt 0.375000 0.000000
vt 0.625000 0.000000
vt 0.625000 0.250000
vt 0.375000 0.250000
vt 0.125000 0.500000
vt 0.375000 0.500000
vt 0.375000 0.750000
vt 0.125000 0.750000
vt 0.375000 0.000000
vt 0.625000 0.000000
vt 0.375000 0.750000
vt 0.125000 0.750000
vt 0.625000 0.750000
vt 0.625000 1.000000
vt 0.375000 1.000000
vt 0.625000 0.750000
vt 0.875000 0.750000
vt 0.875000 0.750000
vt 0.625000 0.500000
vt 0.875000 0.500000
vn -1.0000 0.0000 0.0000
vn 0.0000 -1.0000 0.0000
vn 0.0000 0.0000 1.0000
vn 1.0000 0.0000 0.0000
vn 0.0000 1.0000 0.0000
vn 0.0000 0.0000 -1.0000
usemtl Material.023
s off
f 49/79/25 51/80/25 59/81/25 50/82/25
f 50/83/26 60/84/26 52/85/26 49/86/26
f 51/80/25 49/79/25 53/87/25 54/88/25
f 49/86/26 52/85/26 55/89/26 53/90/26
f 55/89/27 56/91/27 54/92/27 53/93/27
f 52/85/28 57/94/28 56/91/28 55/89/28
f 57/94/29 51/95/29 54/96/29 56/91/29
f 60/84/28 58/97/28 57/94/28 52/85/28
f 58/97/29 59/98/29 51/95/29 57/94/29
f 50/82/30 59/81/30 58/97/30 60/84/30
o Cube.005
v 20.376131 -0.071491 11.302372
v 9.997104 -0.071491 11.302372
v 20.376131 6.443384 11.302372
v 20.376131 -0.071491 10.813181
v 9.997104 -0.071491 10.813181
v 20.376131 6.443384 10.813181
v 9.997104 6.443384 10.813181
v 9.997104 6.443384 11.302372
vt 0.375000 0.000000
vt 0.625000 0.000000
vt 0.625000 0.250000
vt 0.375000 0.250000
vt 0.125000 0.500000
vt 0.375000 0.500000
vt 0.375000 0.750000
vt 0.125000 0.750000
vt 0.625000 0.750000
vt 0.625000 1.000000
vt 0.375000 1.000000
vt 0.625000 0.500000
vt 0.875000 0.500000
vt 0.875000 0.750000
vn 0.0000 0.0000 1.0000
vn 0.0000 -1.0000 0.0000
vn 1.0000 0.0000 0.0000
vn 0.0000 0.0000 -1.0000
vn 0.0000 1.0000 0.0000
vn -1.0000 0.0000 0.0000
usemtl Material.023
s off
f 61/99/31 63/100/31 68/101/31 62/102/31
f 62/103/32 65/104/32 64/105/32 61/106/32
f 64/105/33 66/107/33 63/108/33 61/109/33
f 65/104/34 67/110/34 66/107/34 64/105/34
f 67/110/35 68/111/35 63/112/35 66/107/35
f 62/102/36 68/101/36 67/110/36 65/104/36
o Cube.006
v 9.841740 -0.073918 19.270679
v 9.841740 -0.073918 10.955662
v 9.841740 6.440957 19.270679
v 10.330931 -0.073918 19.270679
v 9.841740 -0.073918 22.176449
v 9.841740 6.440957 22.176449
v 10.330932 -0.073918 22.176449
v 10.330932 6.440957 22.176449
v 10.330931 6.440957 19.270679
v 10.330932 6.440957 10.955662
v 9.841740 6.440957 10.955662
v 10.330932 -0.073918 10.955662
vt 0.375000 0.000000
vt 0.625000 0.000000
vt 0.625000 0.250000
vt 0.375000 0.250000
vt 0.125000 0.500000
vt 0.375000 0.500000
vt 0.375000 0.750000
vt 0.125000 0.750000
vt 0.375000 0.000000
vt 0.625000 0.000000
vt 0.375000 0.750000
vt 0.125000 0.750000
vt 0.625000 0.750000
vt 0.625000 1.000000
vt 0.375000 1.000000
vt 0.625000 0.750000
vt 0.875000 0.750000
vt 0.875000 0.750000
vt 0.625000 0.500000
vt 0.875000 0.500000
vn -1.0000 0.0000 0.0000
vn 0.0000 -1.0000 0.0000
vn 0.0000 0.0000 1.0000
vn 1.0000 0.0000 -0.0000
vn 0.0000 1.0000 0.0000
vn 0.0000 0.0000 -1.0000
usemtl Material.023
s off
f 69/113/37 71/114/37 79/115/37 70/116/37
f 70/117/38 80/118/38 72/119/38 69/120/38
f 71/114/37 69/113/37 73/121/37 74/122/37
f 69/120/38 72/119/38 75/123/38 73/124/38
f 75/123/39 76/125/39 74/126/39 73/127/39
f 72/119/40 77/128/40 76/125/40 75/123/40
f 77/128/41 71/129/41 74/130/41 76/125/41
f 80/118/40 78/131/40 77/128/40 72/119/40
f 78/131/41 79/132/41 71/129/41 77/128/41
f 70/116/42 79/115/42 78/131/42 80/118/42
o Cube.007
v -13.888739 -0.143749 -5.377093
v -27.752674 -0.143749 -5.377092
v -13.888739 6.371127 -5.377093
v -13.888739 -0.143749 -5.866285
v -27.752674 -0.143749 -5.866284
v -13.888739 6.371127 -5.866285
v -27.752674 6.371127 -5.866284
v -27.752674 6.371127 -5.377092
v -37.725067 6.371127 -5.866283
v -37.725067 6.371127 -5.377091
v -37.725067 -0.143749 -5.866283
v -37.725067 -0.143749 -5.377091
vt 0.375000 0.000000
vt 0.625000 0.000000
vt 0.625000 0.250000
vt 0.375000 0.250000
vt 0.125000 0.500000
vt 0.375000 0.500000
vt 0.375000 0.750000
vt 0.125000 0.750000
vt 0.625000 0.750000
vt 0.625000 1.000000
vt 0.375000 1.000000
vt 0.625000 0.500000
vt 0.875000 0.500000
vt 0.875000 0.750000
vt 0.625000 0.500000
vt 0.875000 0.500000
vt 0.375000 0.500000
vt 0.375000 0.250000
vt 0.625000 0.250000
vt 0.125000 0.500000
vn 0.0000 0.0000 1.0000
vn 0.0000 -1.0000 0.0000
vn 1.0000 0.0000 0.0000
vn -0.0000 0.0000 -1.0000
vn 0.0000 1.0000 0.0000
vn -1.0000 0.0000 0.0000
usemtl Material.023
s off
f 81/133/43 83/134/43 88/135/43 82/136/43
f 82/137/44 85/138/44 84/139/44 81/140/44
f 84/139/45 86/141/45 83/142/45 81/143/45
f 85/138/46 87/144/46 86/141/46 84/139/46
f 87/144/47 88/145/47 83/146/47 86/141/47
f 88/145/47 87/144/47 89/147/47 90/148/47
f 87/144/46 85/138/46 91/149/46 89/147/46
f 92/150/48 90/151/48 89/147/48 91/149/48
f 85/138/44 82/137/44 92/152/44 91/149/44
f 82/136/43 88/135/43 90/151/43 92/150/43
o Cube.009
v -19.451809 -0.043062 -5.444649
v -19.451809 -0.043062 -16.949768
v -19.451809 6.456938 -5.444649
v -18.962616 -0.043062 -5.444649
v -18.962616 -0.043062 -16.949768
v -18.962616 6.456938 -5.444649
v -18.962616 6.456938 -16.949768
v -19.451809 6.456938 -16.949768
vt 0.375000 0.000000
vt 0.625000 0.000000
vt 0.625000 0.250000
vt 0.375000 0.250000
vt 0.125000 0.500000
vt 0.375000 0.500000
vt 0.375000 0.750000
vt 0.125000 0.750000
vt 0.625000 0.750000
vt 0.625000 1.000000
vt 0.375000 1.000000
vt 0.625000 0.500000
vt 0.875000 0.500000
vt 0.875000 0.750000
vn -1.0000 0.0000 0.0000
vn 0.0000 -1.0000 0.0000
vn 0.0000 0.0000 1.0000
vn 1.0000 0.0000 0.0000
vn 0.0000 1.0000 0.0000
vn 0.0000 0.0000 -1.0000
usemtl Material.023
s off
f 93/153/49 95/154/49 100/155/49 94/156/49
f 94/157/50 97/158/50 96/159/50 93/160/50
f 96/159/51 98/161/51 95/162/51 93/163/51
f 97/158/52 99/164/52 98/161/52 96/159/52
f 99/164/53 100/165/53 95/166/53 98/161/53
f 94/156/54 100/155/54 99/164/54 97/158/54
o Cube.010
v -0.240639 -0.128330 -15.851706
v -19.706558 -0.128330 -15.851706
v -0.240639 6.491956 -15.851706
v -0.240639 -0.128330 -16.340899
v -19.706558 -0.128330 -16.340897
v -0.240639 6.491956 -16.340899
v -19.706558 6.491956 -16.340897
v -19.706558 6.491956 -15.851706
vt 0.375000 0.000000
vt 0.625000 0.000000
vt 0.625000 0.250000
vt 0.375000 0.250000
vt 0.125000 0.500000
vt 0.375000 0.500000
vt 0.375000 0.750000
vt 0.125000 0.750000
vt 0.625000 0.750000
vt 0.625000 1.000000
vt 0.375000 1.000000
vt 0.625000 0.500000
vt 0.875000 0.500000
vt 0.875000 0.750000
vn 0.0000 0.0000 1.0000
vn 0.0000 -1.0000 0.0000
vn 1.0000 0.0000 0.0000
vn -0.0000 0.0000 -1.0000
vn 0.0000 1.0000 0.0000
vn -1.0000 0.0000 0.0000
usemtl Material.023
s off
f 101/167/55 103/168/55 108/169/55 102/170/55
f 102/171/56 105/172/56 104/173/56 101/174/56
f 104/173/57 106/175/57 103/176/57 101/177/57
f 105/172/58 107/178/58 106/175/58 104/173/58
f 107/178/59 108/179/59 103/180/59 106/175/59
f 102/170/60 108/169/60 107/178/60 105/172/60
o Cube.011
v -0.776375 -0.497020 -5.371097
v -0.776375 -0.497020 -15.872963
v -0.776375 6.498291 -5.371097
v -0.287180 -0.497020 -5.371097
v -0.287180 -0.497020 -15.872963
v -0.287180 6.498291 -5.371097
v -0.287180 6.498291 -15.872963
v -0.776375 6.498291 -15.872963
vt 0.375000 0.000000
vt 0.625000 0.000000
vt 0.625000 0.250000
vt 0.375000 0.250000
vt 0.125000 0.500000
vt 0.375000 0.500000
vt 0.375000 0.750000
vt 0.125000 0.750000
vt 0.625000 0.750000
vt 0.625000 1.000000
vt 0.375000 1.000000
vt 0.625000 0.500000
vt 0.875000 0.500000
vt 0.875000 0.750000
vn -1.0000 0.0000 0.0000
vn 0.0000 -1.0000 0.0000
vn 0.0000 0.0000 1.0000
vn 1.0000 0.0000 0.0000
vn 0.0000 1.0000 0.0000
vn 0.0000 0.0000 -1.0000
usemtl Material.023
s off
f 109/181/61 111/182/61 116/183/61 110/184/61
f 110/185/62 113/186/62 112/187/62 109/188/62
f 112/187/63 114/189/63 111/190/63 109/191/63
f 113/186/64 115/192/64 114/189/64 112/187/64
f 115/192/65 116/193/65 111/194/65 114/189/65
f 110/184/66 116/183/66 115/192/66 113/186/66
o Cube.012
v 7.521371 -0.237467 -5.688399
v 7.521372 -0.237467 -19.766094
v 7.521371 6.277409 -5.688399
v 8.010563 -0.237467 -5.688400
v 8.010564 -0.237467 -19.766094
v 8.010563 6.277409 -5.688400
v 8.010564 6.277409 -19.766094
v 7.521372 6.277409 -19.766094
vt 0.375000 0.000000
vt 0.625000 0.000000
vt 0.625000 0.250000
vt 0.375000 0.250000
vt 0.125000 0.500000
vt 0.375000 0.500000
vt 0.375000 0.750000
vt 0.125000 0.750000
vt 0.625000 0.750000
vt 0.625000 1.000000
vt 0.375000 1.000000
vt 0.625000 0.500000
vt 0.875000 0.500000
vt 0.875000 0.750000
vn -1.0000 0.0000 -0.0000
vn 0.0000 -1.0000 0.0000
vn 0.0000 0.0000 1.0000
vn 1.0000 0.0000 0.0000
vn 0.0000 1.0000 0.0000
vn 0.0000 0.0000 -1.0000
usemtl Material.023
s off
f 117/195/67 119/196/67 124/197/67 118/198/67
f 118/199/68 121/200/68 120/201/68 117/202/68
f 120/201/69 122/203/69 119/204/69 117/205/69
f 121/200/70 123/206/70 122/203/70 120/201/70
f 123/206/71 124/207/71 119/208/71 122/203/71
f 118/198/72 124/197/72 123/206/72 121/200/72
o Cube.013
v 7.986104 -0.208422 -5.379959
v -12.085182 -0.208422 -5.379958
v 7.986104 -0.208422 -5.869151
v 7.986104 4.392476 -5.379959
v 7.986104 6.364290 -5.379959
v 7.986104 4.392476 -5.869151
v -12.085182 4.392476 -5.379958
v -12.085182 6.364290 -5.379958
v -12.085182 4.392476 -5.869150
v -14.650761 4.392476 -5.379958
v -14.650761 6.364290 -5.379958
v -14.650761 4.392476 -5.869150
v -14.650761 6.364290 -5.869150
v -12.085182 6.364290 -5.869150
v 7.986104 6.364290 -5.869151
v -12.085182 -0.208422 -5.869150
vt 0.375000 0.000000
vt 0.550000 0.000000
vt 0.550000 0.250000
vt 0.375000 0.250000
vt 0.125000 0.500000
vt 0.375000 0.500000
vt 0.375000 0.750000
vt 0.125000 0.750000
vt 0.550000 0.750000
vt 0.550000 1.000000
vt 0.375000 1.000000
vt 0.625000 0.750000
vt 0.625000 1.000000
vt 0.625000 0.000000
vt 0.625000 0.250000
vt 0.550000 0.500000
vt 0.625000 0.250000
vt 0.550000 0.250000
vt 0.550000 0.500000
vt 0.625000 0.500000
vt 0.625000 0.500000
vt 0.875000 0.500000
vt 0.875000 0.500000
vt 0.875000 0.750000
vn 0.0000 0.0000 1.0000
vn 0.0000 -1.0000 0.0000
vn 1.0000 0.0000 0.0000
vn -1.0000 0.0000 0.0000
vn 0.0000 0.0000 -1.0000
vn 0.0000 1.0000 0.0000
usemtl Material.023
s off
f 125/209/73 128/210/73 131/211/73 126/212/73
f 126/213/74 140/214/74 127/215/74 125/216/74
f 127/215/75 130/217/75 128/218/75 125/219/75
f 130/217/75 139/220/75 129/221/75 128/218/75
f 128/210/73 129/222/73 132/223/73 131/211/73
f 126/212/76 131/211/76 133/224/76 140/214/76
f 131/211/73 132/223/73 135/225/73 134/226/73
f 133/224/74 131/211/74 134/226/74 136/227/74
f 134/226/76 135/225/76 137/228/76 136/227/76
f 138/229/77 133/224/77 136/227/77 137/228/77
f 132/230/78 138/229/78 137/228/78 135/231/78
f 138/229/78 132/230/78 129/232/78 139/220/78
f 133/224/77 138/229/77 139/220/77 130/217/77
f 140/214/77 133/224/77 130/217/77 127/215/77
o Cube.014
v 26.410099 -0.219854 -19.136948
v 16.443377 -0.219854 -19.136948
v 26.410099 6.280146 -19.136948
v 26.410099 -0.219854 -19.626139
v 16.443377 -0.219854 -19.626139
v 26.410099 6.280146 -19.626139
v 15.832060 6.280146 -19.626139
v 15.832060 6.280146 -19.136948
vt 0.125000 0.500000
vt 0.375000 0.500000
vt 0.375000 0.750000
vt 0.125000 0.750000
vt 0.375000 0.000000
vt 0.625000 0.000000
vt 0.625000 0.250000
vt 0.375000 0.250000
vt 0.625000 0.750000
vt 0.625000 1.000000
vt 0.375000 1.000000
vt 0.625000 0.500000
vt 0.875000 0.500000
vt 0.875000 0.750000
vn 0.0000 -1.0000 0.0000
vn 0.0000 0.0000 1.0000
vn 1.0000 0.0000 0.0000
vn 0.0000 0.0000 -1.0000
vn 0.0000 1.0000 0.0000
vn -0.9956 -0.0936 0.0000
usemtl Material.023
s off
f 142/233/79 145/234/79 144/235/79 141/236/79
f 141/237/80 143/238/80 148/239/80 142/240/80
f 144/235/81 146/241/81 143/242/81 141/243/81
f 145/234/82 147/244/82 146/241/82 144/235/82
f 147/244/83 148/245/83 143/246/83 146/241/83
f 142/240/84 148/239/84 147/244/84 145/234/84
o Cube.015
v 26.660580 -0.031541 -1.712964
v 16.082541 -0.031541 -1.712964
v 26.660580 6.468459 -1.712964
v 26.660580 -0.031541 -2.202156
v 16.082541 -0.031541 -2.202156
v 26.660580 6.468459 -2.202156
v 16.082541 6.468459 -2.202156
v 16.082541 6.468459 -1.712964
vt 0.375000 0.000000
vt 0.625000 0.000000
vt 0.625000 0.250000
vt 0.375000 0.250000
vt 0.125000 0.500000
vt 0.375000 0.500000
vt 0.375000 0.750000
vt 0.125000 0.750000
vt 0.625000 0.750000
vt 0.625000 1.000000
vt 0.375000 1.000000
vt 0.625000 0.500000
vt 0.875000 0.500000
vt 0.875000 0.750000
vn 0.0000 0.0000 1.0000
vn 0.0000 -1.0000 0.0000
vn 1.0000 0.0000 0.0000
vn -0.0000 0.0000 -1.0000
vn 0.0000 1.0000 0.0000
vn -1.0000 0.0000 0.0000
usemtl Material.023
s off
f 149/247/85 151/248/85 156/249/85 150/250/85
f 150/251/86 153/252/86 152/253/86 149/254/86
f 152/253/87 154/255/87 151/256/87 149/257/87
f 153/252/88 155/258/88 154/255/88 152/253/88
f 155/258/89 156/259/89 151/260/89 154/255/89
f 150/250/90 156/249/90 155/258/90 153/252/90
o Cube.016
v 26.166847 -0.204189 -1.530312
v 26.166847 -0.204189 -19.339832
v 26.166847 6.295812 -1.530312
v 26.656040 -0.204189 -1.530312
v 26.656040 -0.204189 -19.339832
v 26.656040 6.295812 -1.530312
v 26.656040 6.295812 -19.339832
v 26.166847 6.295812 -19.339832
vt 0.375000 0.000000
vt 0.625000 0.000000
vt 0.625000 0.250000
vt 0.375000 0.250000
vt 0.125000 0.500000
vt 0.375000 0.500000
vt 0.375000 0.750000
vt 0.125000 0.750000
vt 0.625000 0.750000
vt 0.625000 1.000000
vt 0.375000 1.000000
vt 0.625000 0.500000
vt 0.875000 0.500000
vt 0.875000 0.750000
vn -1.0000 0.0000 0.0000
vn 0.0000 -1.0000 0.0000
vn 0.0000 0.0000 1.0000
vn 1.0000 0.0000 0.0000
vn 0.0000 1.0000 0.0000
vn 0.0000 0.0000 -1.0000
usemtl Material.023
s off
f 157/261/91 159/262/91 164/263/91 158/264/91
f 158/265/92 161/266/92 160/267/92 157/268/92
f 160/267/93 162/269/93 159/270/93 157/271/93
f 161/266/94 163/272/94 162/269/94 160/267/94
f 163/272/95 164/273/95 159/274/95 162/269/95
f 158/264/96 164/263/96 163/272/96 161/266/96
o Cube.017
v 15.820328 -0.131061 -11.874384
v 15.820328 -0.131061 -19.968601
v 15.820328 6.383815 -11.874384
v 16.309519 -0.131061 -11.874384
v 16.309519 -0.131061 -19.968601
v 16.309519 6.383815 -11.874384
v 16.309519 6.383815 -19.968601
v 15.820328 6.383815 -19.968601
vt 0.375000 0.000000
vt 0.625000 0.000000
vt 0.625000 0.250000
vt 0.375000 0.250000
vt 0.125000 0.500000
vt 0.375000 0.500000
vt 0.375000 0.750000
vt 0.125000 0.750000
vt 0.625000 0.750000
vt 0.625000 1.000000
vt 0.375000 1.000000
vt 0.625000 0.500000
vt 0.875000 0.500000
vt 0.875000 0.750000
vn -1.0000 0.0000 0.0000
vn 0.0000 -1.0000 0.0000
vn 0.0000 0.0000 1.0000
vn 1.0000 0.0000 0.0000
vn 0.0000 1.0000 0.0000
vn 0.0000 0.0000 -1.0000
usemtl Material.023
s off
f 165/275/97 167/276/97 172/277/97 166/278/97
f 166/279/98 169/280/98 168/281/98 165/282/98
f 168/281/99 170/283/99 167/284/99 165/285/99
f 169/280/100 171/286/100 170/283/100 168/281/100
f 171/286/101 172/287/101 167/288/101 170/283/101
f 166/278/102 172/277/102 171/286/102 169/280/102
o Cube.018
v 16.327095 -0.106922 -19.474733
v 13.942302 -0.106922 -19.474733
v 16.327095 6.407953 -19.474733
v 16.327095 -0.106922 -19.963924
v 13.942302 -0.106922 -19.963924
v 16.327095 6.407953 -19.963924
v 13.942302 6.407953 -19.963924
v 13.942302 6.407953 -19.474733
vt 0.375000 0.000000
vt 0.625000 0.000000
vt 0.625000 0.250000
vt 0.375000 0.250000
vt 0.125000 0.500000
vt 0.375000 0.500000
vt 0.375000 0.750000
vt 0.125000 0.750000
vt 0.625000 0.750000
vt 0.625000 1.000000
vt 0.375000 1.000000
vt 0.625000 0.500000
vt 0.875000 0.500000
vt 0.875000 0.750000
vn 0.0000 0.0000 1.0000
vn 0.0000 -1.0000 0.0000
vn 1.0000 0.0000 0.0000
vn 0.0000 0.0000 -1.0000
vn 0.0000 1.0000 0.0000
vn -1.0000 0.0000 0.0000
usemtl Material.023
s off
f 173/289/103 175/290/103 180/291/103 174/292/103
f 174/293/104 177/294/104 176/295/104 173/296/104
f 176/295/105 178/297/105 175/298/105 173/299/105
f 177/294/106 179/300/106 178/297/106 176/295/106
f 179/300/107 180/301/107 175/302/107 178/297/107
f 174/292/108 180/291/108 179/300/108 177/294/108
o Cube.019
v 10.598228 -0.267693 -19.408060
v 7.560060 -0.267693 -19.408060
v 10.598228 -0.267693 -19.897253
v 10.617058 4.292719 -19.408060
v 10.625128 6.247182 -19.408060
v 10.617058 4.292719 -19.897253
v 7.560060 4.292719 -19.408060
v 16.111591 4.270031 -19.408060
v 16.119661 6.224494 -19.408060
v 16.111591 4.270031 -19.897253
v 16.119661 6.224494 -19.897253
v 10.625128 6.247182 -19.897253
v 7.560060 6.247182 -19.897253
v 7.560060 6.247182 -19.408060
v 7.560060 4.292719 -19.897253
v 7.560060 -0.267693 -19.897253
vt 0.375000 0.000000
vt 0.550000 0.000000
vt 0.550000 0.250000
vt 0.375000 0.250000
vt 0.125000 0.500000
vt 0.375000 0.500000
vt 0.375000 0.750000
vt 0.125000 0.750000
vt 0.550000 0.750000
vt 0.550000 1.000000
vt 0.375000 1.000000
vt 0.625000 0.000000
vt 0.550000 0.000000
vt 0.625000 0.000000
vt 0.625000 0.250000
vt 0.550000 0.750000
vt 0.550000 1.000000
vt 0.625000 0.750000
vt 0.625000 1.000000
vt 0.625000 0.750000
vt 0.875000 0.750000
vt 0.875000 0.750000
vt 0.625000 0.500000
vt 0.875000 0.500000
vt 0.550000 0.500000
vn 0.0000 0.0000 1.0000
vn 0.0000 -1.0000 0.0000
vn 1.0000 -0.0041 0.0000
vn -0.0041 -1.0000 0.0000
vn 0.0000 0.0000 -1.0000
vn 0.0041 1.0000 0.0000
vn 0.0000 1.0000 0.0000
vn -1.0000 0.0000 0.0000
usemtl Material.023
s off
f 181/303/109 184/304/109 187/305/109 182/306/109
f 182/307/110 196/308/110 183/309/110 181/310/110
f 183/309/111 186/311/111 184/312/111 181/313/111
f 185/314/109 184/304/109 188/315/109 189/316/109
f 184/304/109 185/314/109 194/317/109 187/305/109
f 184/312/112 186/311/112 190/318/112 188/319/112
f 190/318/111 191/320/111 189/321/111 188/319/111
f 186/311/113 192/322/113 191/320/113 190/318/113
f 192/322/114 185/323/114 189/324/114 191/320/114
f 193/325/115 194/326/115 185/323/115 192/322/115
f 195/327/113 193/325/113 192/322/113 186/311/113
f 187/305/116 194/317/116 193/325/116 195/327/116
f 196/308/113 195/327/113 186/311/113 183/309/113
f 182/306/116 187/305/116 195/327/116 196/308/116
o Vloer_Plane
v -61.925205 0.000000 30.000000
v 28.074795 0.000000 30.000000
v -61.925205 0.000000 -30.000000
v 28.074795 0.000000 -30.000000
vt 4.999100 3.499399
vt -3.999099 3.499400
vt -3.999100 -2.499399
vt 4.999099 -2.499400
vn 0.0000 1.0000 0.0000
usemtl Material.009
s off
f 197/328/117 198/329/117 200/330/117 199/331/117
o plafond_Plane.001
v 28.074795 6.296068 30.000000
v -61.925205 6.296075 30.000000
v 28.074795 6.296068 -30.000000
v -61.925205 6.296075 -30.000000
vt 22.822922 -10.905232
vt 22.822927 11.905231
vt -21.822922 11.905232
vt -21.822927 -10.905231
vn -0.0000 -1.0000 0.0000
usemtl Material.021
s off
f 201/332/118 202/333/118 204/334/118 203/335/118
